<svg width="127" height="102" viewBox="0 0 127 102" fill="none" xmlns="http://www.w3.org/2000/svg">
<path d="M53.8343 42.6093L57.8829 41.4786L59.945 40.9041L95.5075 30.9807C95.5075 30.9807 94.6933 28.5942 93.344 25.4822C93.0801 24.8731 92.7964 24.2367 92.4934 23.5845C90.2415 18.7251 86.9725 13.0179 83.5612 11.6283C78.4613 9.55184 59.4082 15.7295 53.0429 21.4977C50.1253 24.1406 51.2107 31.8663 52.406 37.2024C52.5406 37.7989 52.6753 38.3658 52.805 38.8914C53.3553 41.1092 53.8343 42.6093 53.8343 42.6093Z" fill="white"/>
<g opacity="0.35">
<path d="M57.8829 41.4786L59.945 40.9041L88.1822 33.0248L95.5075 30.9808L95.4573 30.8367L95.4245 30.7438L95.3931 30.6571C95.3859 30.6338 95.3769 30.6122 95.3693 30.5876C95.3657 30.5786 95.363 30.5678 95.3589 30.5588C95.3437 30.5139 95.3266 30.4691 95.3078 30.4188C95.3048 30.4071 95.3009 30.3957 95.2961 30.3847C95.2813 30.3443 95.2656 30.3016 95.2512 30.2554C95.2292 30.193 95.2063 30.1293 95.1803 30.0619C95.1614 30.0144 95.1439 29.9623 95.1246 29.9111L95.0645 29.75C95.0394 29.6809 95.0111 29.6081 94.9846 29.5336C94.9272 29.3833 94.8675 29.2239 94.8024 29.056C94.7472 28.9075 94.6866 28.7517 94.6228 28.5897C94.5492 28.4025 94.4738 28.2064 94.393 28.0039C94.095 27.2548 93.744 26.4006 93.3458 25.4822C93.2686 25.3027 93.1887 25.1232 93.1084 24.9387C93.0523 24.8108 92.9935 24.6801 92.9347 24.5495C92.7937 24.2353 92.6465 23.9095 92.4952 23.5845C90.2433 18.7234 86.9743 13.0179 83.563 11.6301C79.3635 9.91901 65.7025 13.8039 57.4552 18.4527C65.0014 15.4566 73.5368 13.5669 76.7017 14.8569C78.2669 15.4943 75.3929 21.1337 72.904 21.886C66.4853 23.8255 58.6411 27.5762 55.7311 35.06C55.6539 35.2539 57.2326 38.5319 57.8829 41.4786Z" fill="#371A45"/>
</g>
<path d="M96.4914 31.4996L53.3316 43.5416L53.1071 42.8409C53.051 42.6663 51.7278 38.5009 50.9526 33.7453C49.8785 27.1628 50.409 22.8519 52.5285 20.9313C59.1716 14.913 78.4891 8.73853 83.8489 10.9218C90.3026 13.5503 95.991 30.035 96.2298 30.7352L96.4914 31.4996ZM54.3437 41.6739L94.5124 30.4664C93.3158 27.1933 88.3595 14.4071 83.2726 12.3352C81.1077 11.4537 75.5073 12.2432 69.0101 14.347C62.3482 16.5015 56.4255 19.4595 53.5533 22.0624C50.2304 25.0734 52.8266 36.6278 54.3446 41.6739H54.3437Z" fill="#371A45"/>
<path d="M68.7749 15.1446L71.5547 21.851C71.675 22.1421 71.8886 22.385 72.1619 22.5416C72.4351 22.6982 72.7527 22.7597 73.0646 22.7164C75.4153 22.3874 80.8043 21.3461 81.8017 18.626C82.6298 16.3682 81.5058 13.5153 79.503 12.2859C77.2623 10.911 72.1288 12.3945 69.6282 13.2523C69.4441 13.3153 69.275 13.4154 69.1311 13.5463C68.9873 13.6773 68.8718 13.8364 68.7919 14.0137C68.7119 14.1911 68.6692 14.3829 68.6662 14.5774C68.6633 14.7719 68.7003 14.965 68.7749 15.1446Z" fill="white"/>
<g opacity="0.35">
<path d="M73.0656 22.7155C75.4153 22.3883 80.8048 21.3456 81.8012 18.6255C82.6298 16.3673 81.5059 13.5148 79.5022 12.285C78.1237 11.4407 75.651 11.6763 73.3708 12.1826C74.576 12.1292 75.6317 12.3204 76.4185 12.732C80.9269 15.0894 77.81 18.9833 77.81 18.9833C77.81 18.9833 78.9218 19.1152 79.0946 19.455C79.8155 20.8761 75.0293 22.1087 72.5377 22.689C72.7103 22.7319 72.8896 22.7409 73.0656 22.7155Z" fill="#371A45"/>
</g>
<path d="M82.8385 17.0276C82.8422 17.6619 82.7338 18.2919 82.5185 18.8885C81.417 21.8927 76.1896 23.0499 73.1706 23.4723C72.6911 23.539 72.203 23.4446 71.783 23.204C71.3629 22.9634 71.0346 22.5901 70.8495 22.1428L68.0698 15.4368C67.9551 15.1609 67.8983 14.8643 67.9027 14.5655C67.9072 14.2668 67.9728 13.972 68.0957 13.6996C68.2185 13.4272 68.3959 13.1829 68.6169 12.9817C68.8378 12.7805 69.0977 12.6268 69.3804 12.53C72.8864 11.328 77.5577 10.196 79.9025 11.6355C81.7236 12.7531 82.8385 14.9278 82.8385 17.0276ZM69.4289 14.5979C69.4291 14.6851 69.4465 14.7715 69.4801 14.852L72.2603 21.5583C72.3154 21.6936 72.4139 21.8067 72.5404 21.8798C72.6668 21.953 72.814 21.982 72.9587 21.9623C77.4518 21.3339 80.4896 19.9873 81.083 18.3647C81.7662 16.502 80.8586 14.0167 79.1013 12.9385C77.7099 12.0857 74.2595 12.4721 69.8733 13.9758C69.7428 14.0202 69.6295 14.1041 69.549 14.216C69.4686 14.3278 69.425 14.4619 69.4244 14.5997L69.4289 14.5979Z" fill="#371A45"/>
<path d="M82.3125 14.9933C82.285 15.1278 82.248 15.2601 82.2016 15.3892C82.1607 15.5046 82.1172 15.6177 82.0669 15.725C81.9725 15.9396 81.8633 16.1475 81.7402 16.3471C81.5029 16.7381 81.2223 17.1009 80.9035 17.4288C80.2866 18.0666 79.5642 18.5932 78.7683 18.9855C78.3814 19.1768 77.9835 19.3448 77.5766 19.4887C77.1726 19.6449 76.774 19.753 76.3673 19.8715C75.9607 19.99 75.5504 20.0843 75.1339 20.1628C74.9247 20.2005 74.7156 20.2355 74.5028 20.2602C74.2833 20.2889 74.062 20.3008 73.8407 20.2957C73.7889 20.2944 73.7397 20.2731 73.7032 20.2363C73.6667 20.1995 73.6458 20.1501 73.6449 20.0983C73.6439 20.0465 73.6631 19.9963 73.6982 19.9582C73.7334 19.9202 73.7818 19.8972 73.8336 19.894H73.8555C74.0481 19.8771 74.2393 19.8471 74.4278 19.8042C74.624 19.7625 74.8192 19.7099 75.014 19.6552C75.4032 19.543 75.7879 19.4101 76.1681 19.2642C76.5482 19.1183 76.9343 18.9671 77.2902 18.788C77.6507 18.6206 78.001 18.4321 78.3392 18.2233C78.9993 17.8181 79.5844 17.3018 80.0686 16.6972C80.3022 16.4066 80.5019 16.0904 80.6638 15.7546C80.7436 15.5931 80.8118 15.4262 80.868 15.255C80.8977 15.1711 80.9201 15.088 80.9408 15.0055C80.9581 14.9375 80.971 14.8686 80.9794 14.799C80.9885 14.6223 81.0663 14.4561 81.1961 14.336C81.326 14.2158 81.4978 14.1512 81.6746 14.1559C81.8515 14.1606 82.0196 14.2342 82.1429 14.361C82.2663 14.4879 82.3352 14.658 82.3349 14.8349C82.3337 14.8729 82.3295 14.9107 82.3223 14.948L82.3125 14.9933Z" fill="#371A45"/>
<path d="M55.5763 32.2299C55.1804 31.4193 54.8105 30.6082 54.4492 29.7863C54.0879 28.9645 53.7427 28.1372 53.4168 27.2974C53.091 26.4576 52.7817 25.6097 52.5146 24.7389C52.2476 23.8682 52.0029 22.9826 51.858 22.0373C51.8272 21.837 51.8774 21.6327 51.9973 21.4693C52.1172 21.306 52.2971 21.197 52.4973 21.1663C52.6976 21.1355 52.9019 21.1857 53.0653 21.3056C53.2286 21.4255 53.3376 21.6054 53.3684 21.8057C53.3711 21.8232 53.3728 21.8402 53.3746 21.8573V21.8649C53.442 22.6877 53.6112 23.5396 53.8082 24.3843C54.0053 25.2291 54.2495 26.0756 54.5085 26.9168C54.7674 27.758 55.0516 28.5951 55.3496 29.4277C55.6477 30.2603 55.9601 31.0912 56.2922 31.9058V31.9099C56.3291 32.0041 56.3283 32.109 56.2899 32.2026C56.2515 32.2963 56.1785 32.3716 56.086 32.4128C55.9936 32.454 55.8888 32.4581 55.7935 32.4241C55.6982 32.3902 55.6196 32.3208 55.574 32.2304L55.5763 32.2299Z" fill="#371A45"/>
<path d="M57.9624 70.6768C59.8629 69.8325 61.7463 68.6224 62.7486 68.2377L66.2429 70.2203L70.201 72.4677C70.3314 73.5995 70.4284 74.6879 70.4918 75.7332C71.6485 94.4505 62.6081 99.9513 58.2829 100.566C49.7227 101.784 44.292 96.9049 42.0823 94.6503C41.7259 94.2827 41.3892 93.8964 41.0737 93.4931C35.2089 86.0493 29.7203 66.5666 37.5358 60.9334C41.9346 57.7596 49.4714 59.95 52.4464 69.811C53.1749 72.2281 55.5803 71.7374 57.9624 70.6768Z" fill="white"/>
<g opacity="0.35">
<path d="M60.5281 69.3764C61.4312 68.8827 62.2153 68.4419 62.7486 68.2377L70.1996 72.4677C72.6728 93.8181 62.8487 99.9172 58.2829 100.566C56.9535 100.759 55.607 100.807 54.2674 100.708C54.5264 100.683 57.9265 100.224 58.1882 100.161C63.105 98.971 69.2476 87.6422 67.603 84.3786C67.199 83.576 66.7142 82.9656 66.5876 82.5944C66.3574 81.918 67.3242 81.5741 67.2582 80.5243C67.1981 79.5628 65.5777 79.4654 65.7846 78.7248C65.9507 78.1296 67.4005 77.3984 67.3507 76.5254L60.5281 69.3764Z" fill="#371A45"/>
</g>
<path d="M71.3617 78.9766C71.3617 85.4074 70.0784 90.6752 67.5262 94.6902C64.7779 99.0141 61.0057 100.951 58.3915 101.323C52.0837 102.221 46.4138 100.156 41.5383 95.1844C36.9482 90.5046 32.2115 78.0425 32.9844 68.9886C33.3291 64.9489 34.7107 62.0314 37.0896 60.3149C39.2356 58.7677 41.9943 58.3983 44.6592 59.3005C48.492 60.5991 51.5967 64.3502 53.1776 69.5928C54.8743 75.2188 57.6962 81.7766 59.2969 82.5607C59.3714 82.5971 59.423 82.6056 59.4396 82.6007C59.5332 82.5647 59.6329 82.5476 59.7331 82.5502C59.8333 82.5527 59.9321 82.5751 60.0236 82.6158C60.1152 82.6565 60.1979 82.7149 60.2669 82.7876C60.336 82.8603 60.39 82.9459 60.426 83.0395C60.4619 83.133 60.4791 83.2328 60.4765 83.333C60.4739 83.4332 60.4516 83.5319 60.4109 83.6235C60.3701 83.7151 60.3117 83.7978 60.239 83.8668C60.1663 83.9358 60.0808 83.9899 59.9872 84.0258C59.6883 84.1407 59.2089 84.2175 58.6249 83.9316C55.4726 82.387 51.8678 70.5372 51.7161 70.0336C50.2798 65.2694 47.5287 61.8846 44.1695 60.7467C41.9781 60.0043 39.7231 60.2979 37.9829 61.5547C35.981 62.9977 34.8108 65.5432 34.5056 69.1202C33.778 77.6359 38.3545 89.7595 42.6299 94.1166C47.1449 98.7201 52.3759 100.637 58.1752 99.8112C63.083 99.1133 71.7535 92.5182 69.4415 72.5548C69.43 72.4552 69.4382 72.3544 69.4656 72.2579C69.4931 72.1615 69.5393 72.0715 69.6015 71.9929C69.6638 71.9143 69.7409 71.8488 69.8285 71.8C69.9161 71.7513 70.0125 71.7202 70.1121 71.7087C70.2117 71.6972 70.3125 71.7054 70.409 71.7329C70.5054 71.7603 70.5954 71.8065 70.674 71.8688C70.7526 71.9311 70.8181 72.0082 70.8669 72.0958C70.9156 72.1834 70.9467 72.2797 70.9582 72.3793C71.2191 74.5689 71.3538 76.7716 71.3617 78.9766Z" fill="#371A45"/>
<path d="M35.2924 0.938721C36.6722 1.19951 38.1687 1.7543 39.7361 2.62328C51.1887 8.97372 60.279 31.255 60.279 31.255C60.279 31.255 64.2478 29.9901 71.3069 27.2516C71.4721 27.1879 71.6373 27.1228 71.8061 27.0573C73.9736 26.2116 76.4199 25.2318 79.1197 24.1128C82.2806 22.8026 85.792 21.2998 89.6118 19.5941C98.7945 15.4992 110.904 11.9748 110.904 11.9748C110.904 11.9748 114.228 2.18969 120.273 2.33018C120.606 2.33764 120.937 2.37444 121.263 2.44015C127.074 3.59012 125.858 26.0052 123.106 27.8859C119.811 30.1374 116.959 31.0449 111.949 33.2654C108.239 34.91 104.408 36.6503 101.3 40.4795C98.1176 44.8096 98.0817 51.9289 98.5063 56.5306C99.1181 63.1463 103.207 64.2388 106.169 65.0706C111.1 66.4584 121.257 65.6263 124.155 70.3334C125.739 72.9067 128.191 94.1125 120.912 95.3465C119.431 95.5965 118.194 95.3334 117.167 94.7831C113.786 92.9747 112.674 88.0566 112.674 88.0566C112.674 88.0566 104.705 88.5503 100.322 88.0633C89.4883 86.8666 84.5217 73.3942 84.5217 73.3942C84.5217 73.3942 83.4723 73.4391 80.0781 73.9499C75.8844 74.5783 72.6495 75.2394 70.4918 75.7323C68.4338 76.204 67.3498 76.525 67.3498 76.525L63.7033 77.7701L61.6426 78.473L57.962 70.6759L44.0294 41.1747C43.4338 40.216 42.7277 39.1513 41.9517 38.004C36.0267 29.2729 25.8628 15.716 27.1281 6.76937C27.7736 2.21123 30.9672 0.119553 35.2924 0.938721Z" fill="white"/>
<g opacity="0.35">
<path d="M35.2924 0.938728C36.6722 1.19952 38.1687 1.7543 39.7361 2.62329C51.1887 8.97373 60.279 31.255 60.279 31.255C60.279 31.255 64.2478 29.9901 71.3069 27.2516L71.9596 28.6781C66.8736 30.3232 69.6412 35.8073 67.585 36.1704C66.5477 36.3536 65.5337 33.1137 63.5767 34.1358C61.6197 35.1578 62.8415 40.128 61.262 40.0436C60.0501 39.9772 60.2377 37.285 59.7475 35.4312C59.2574 33.5774 56.6127 36.4285 55.7486 36.626C54.398 36.9371 55.5619 33.9491 55.289 30.3645C54.1745 15.6581 40.7775 4.7989 35.2924 0.938728Z" fill="#371A45"/>
</g>
<g opacity="0.35">
<path d="M120.272 2.33019C120.605 2.33765 120.936 2.37445 121.262 2.44016C127.073 3.59013 125.857 26.0052 123.105 27.8859C119.81 30.1374 116.958 31.0449 111.947 33.2654C108.238 34.9101 104.407 36.6503 101.299 40.4795C98.1163 44.8096 98.0804 51.9289 98.505 56.5306C99.1168 63.1463 103.205 64.2388 106.168 65.0706C111.099 66.4584 121.256 65.6263 124.154 70.3334C125.738 72.9067 128.19 94.1125 120.911 95.3465C119.43 95.5965 118.193 95.3334 117.166 94.7831C118.552 94.5479 120.075 93.4725 121.061 90.3664C123.277 83.3858 123.689 71.6284 118.618 70.0462C113.548 68.4639 108.892 69.499 104.564 69.4407C101.125 69.3958 96.6566 69.8119 95.2975 67.5869C94.5838 66.4198 96.1952 64.988 95.9681 63.1706C95.741 61.3531 91.6016 61.3302 91.5433 60.0483C91.4692 58.467 94.2539 58.7094 95.3653 55.4017C96.3685 52.4155 96.206 44.7571 93.5191 42.0411C90.9535 39.4476 95.5157 40.3022 96.8362 39.6172C99.3826 38.2985 95.1485 33.0585 97.0831 32.3116C97.9731 31.9687 101.253 33.2542 105.094 32.6321C109.897 31.8574 118.111 28.8698 121.173 22.9283C123.349 18.709 123.821 6.79049 120.272 2.33019Z" fill="#371A45"/>
</g>
<path d="M126.634 82.5468C126.634 86.2275 126.209 89.9382 125.032 92.5353C124.09 94.6112 122.747 95.8119 121.038 96.1005C115.811 96.9861 113.008 92.0608 112.09 88.8555C110.104 88.961 103.963 89.2357 100.236 88.8237C90.198 87.7136 85.1048 76.8194 84.0208 74.2035C83.4108 74.2641 82.2254 74.4014 80.1912 74.7066C72.1517 75.9123 67.6151 77.2454 67.5698 77.2588C67.3757 77.3165 67.1666 77.2946 66.9886 77.1981C66.8106 77.1016 66.6783 76.9383 66.6207 76.7442C66.563 76.5501 66.5849 76.3411 66.6814 76.1631C66.7779 75.9851 66.9412 75.8527 67.1353 75.7951C67.322 75.7395 71.807 74.4203 79.9645 73.1967C83.3588 72.6877 84.4428 72.6347 84.4872 72.6329L85.0447 72.6078L85.2381 73.1312C85.2862 73.2613 90.1756 86.175 100.404 87.3061C104.668 87.7778 112.547 87.3007 112.626 87.2958L113.274 87.2563L113.417 87.8896C113.488 88.2015 115.23 95.5359 120.783 94.5951C121.961 94.3953 122.923 93.4904 123.642 91.9051C126.45 85.7081 124.506 72.3618 123.504 70.7347C121.688 67.7844 116.39 67.2098 111.715 66.7026C109.561 66.4688 107.529 66.2484 105.961 65.8049L105.885 65.7838C102.905 64.9462 98.4004 63.6809 97.7456 56.5988C97.36 52.4267 97.2285 44.7257 100.685 40.0252L100.707 39.997C103.98 35.9613 108.048 34.1578 111.638 32.5661C112.937 31.9902 114.109 31.4951 115.143 31.058C118.133 29.7944 120.293 28.8815 122.674 27.2552C124.037 26.3239 125.547 15.8323 124 8.26453C123.38 5.23609 122.355 3.43304 121.114 3.18707C115.178 2.01196 111.66 12.1193 111.625 12.2194L111.497 12.5951L111.116 12.7064C110.995 12.7414 98.9516 16.2636 89.922 20.2921C71.9205 28.3222 60.6215 31.9458 60.5092 31.9817L59.836 32.1954L59.5693 31.5427C59.4796 31.3223 50.4481 9.4374 39.3627 3.29164C36.0438 1.45132 33.0288 1.02895 30.8739 2.10217C29.2441 2.9137 28.2099 4.56416 27.8831 6.87577C26.7875 14.6316 34.8198 26.2933 40.6855 34.8091C42.1932 36.9977 43.6169 39.0651 44.6771 40.7712C44.784 40.9432 44.8181 41.1506 44.7721 41.3477C44.726 41.5448 44.6036 41.7156 44.4316 41.8225C44.2597 41.9293 44.0523 41.9635 43.8552 41.9174C43.658 41.8714 43.4872 41.7489 43.3804 41.5769C42.339 39.9014 40.9251 37.8483 39.4282 35.6749C33.4202 26.9523 25.1909 15.0055 26.3714 6.66212C26.7718 3.83073 28.0932 1.78124 30.193 0.737198C32.8116 -0.564484 36.3311 -0.133141 40.1033 1.95809C50.6815 7.82331 59.0751 26.4886 60.7058 30.3102C63.3626 29.4219 73.8408 25.7942 89.298 18.8998C97.5216 15.2312 108.195 11.9851 110.314 11.354C111.067 9.34898 114.829 0.390236 121.409 1.69282C123.347 2.07614 124.721 4.18532 125.493 7.96111C126.857 14.6186 126.042 26.805 123.533 28.5188C121.024 30.2325 118.806 31.1693 115.735 32.4687C114.707 32.9032 113.541 33.3961 112.254 33.9666C108.826 35.4864 104.942 37.2087 101.902 40.9485C98.7555 45.2441 98.8982 52.5102 99.2636 56.4628C99.822 62.4995 103.411 63.5099 106.295 64.3178L106.372 64.3394C107.818 64.7461 109.79 64.9602 111.878 65.1864C116.901 65.7317 122.593 66.3494 124.802 69.9362C125.624 71.2653 126.634 76.8701 126.634 82.5468Z" fill="#371A45"/>
<g opacity="0.35">
<path d="M41.2788 38.0049C51.7821 39.2442 60.1897 45.9187 63.9277 54.8227C64.1333 55.3138 64.3256 55.8123 64.5045 56.3183C65.4085 58.8972 65.9143 61.5987 66.0046 64.33C66.0566 65.8173 65.9866 67.3063 65.7954 68.7822C65.7299 69.266 65.6563 69.7459 65.571 70.2185C65.571 70.232 65.5656 70.2437 65.5638 70.2571C65.0843 72.8693 64.2322 75.3992 63.0336 77.7692C61.6005 80.5988 59.706 83.17 57.4278 85.3769C52.7931 89.8727 46.8114 92.7238 40.4004 93.4931C34.5357 86.0493 29.047 66.5666 36.8625 60.9335C41.2613 57.7596 48.7981 59.95 51.7731 69.811C52.5007 72.2267 54.9062 71.7361 57.2882 70.6755L43.3557 41.1743C42.761 40.2169 42.0567 39.1522 41.2788 38.0049Z" fill="#371A45"/>
</g>
<path d="M52.946 88.2832C56.6437 84.6077 59.3333 80.0425 60.7561 75.0267C61.0552 73.9722 61.298 72.9026 61.4832 71.8223C61.5757 71.2917 61.652 70.7526 61.7189 70.2064C62.0687 67.23 61.9814 64.2185 61.4599 61.2674C61.1767 59.6698 60.7654 58.0977 60.23 56.5661C60.0349 56.0122 59.8255 55.4653 59.6016 54.9255C55.4919 45.0506 46.3155 37.6225 34.9338 36.2867C18.1708 34.3153 2.98546 46.3079 1.01363 63.0687C0.641342 66.2111 0.760214 69.3924 1.36598 72.4983C1.43241 72.8529 1.50917 73.207 1.5931 73.5589C1.81125 74.5015 2.07278 75.4277 2.37771 76.3373C3.78357 80.5145 6.07187 84.3402 9.08723 87.5547C9.56302 88.0619 10.0568 88.5533 10.5685 89.0288C15.3209 93.4449 21.3563 96.2328 27.7996 96.9884C37.4424 98.1249 46.5614 94.6381 52.946 88.2832Z" fill="white"/>
<path d="M62.0116 66.6173C62.0114 67.8207 61.941 69.0229 61.8006 70.2181C61.727 70.8164 61.6493 71.3456 61.5641 71.8339C61.3782 72.917 61.135 73.9895 60.8356 75.0469C59.4038 80.0739 56.7071 84.65 53.003 88.338C46.324 94.9856 37.1346 98.168 27.7902 97.0687C21.3299 96.3117 15.2786 93.5171 10.5133 89.0898C10.0106 88.623 9.51187 88.1257 9.03204 87.6122C6.0089 84.389 3.71451 80.5533 2.30457 76.3652C2.00069 75.4576 1.73586 74.5204 1.51817 73.5791C1.4284 73.2043 1.35389 72.8564 1.2906 72.5153C0.682154 69.4013 0.56222 66.2115 0.935103 63.0606C2.91008 46.2805 18.1663 34.2345 34.945 36.2077C45.942 37.4986 55.4183 44.6592 59.6771 54.8954C59.9015 55.434 60.112 55.9884 60.3055 56.5405C61.2948 59.3744 61.8599 62.3389 61.9824 65.3381C62.0018 65.7648 62.0116 66.1912 62.0116 66.6173ZM52.889 88.2258C56.5737 84.5574 59.2561 80.0054 60.6798 75.0047C60.978 73.953 61.2201 72.8862 61.4052 71.8088C61.49 71.3205 61.5668 70.7939 61.6399 70.1988C62.185 65.6102 61.6772 60.9577 60.1551 56.5948C59.9616 56.0458 59.7511 55.4951 59.5267 54.9583C55.2899 44.7759 45.863 37.653 34.9244 36.3693C18.2341 34.4064 3.05775 46.3891 1.094 63.0803C0.72283 66.2151 0.842008 69.3885 1.44725 72.4866C1.51054 72.8255 1.58415 73.1711 1.67168 73.5436C1.88848 74.4804 2.15195 75.4122 2.45448 76.3153C3.857 80.4813 6.13912 84.2968 9.14605 87.5031C9.62543 88.0139 10.1214 88.5086 10.6214 88.9731C15.3615 93.3775 21.3809 96.158 27.8073 96.9116C37.1022 98.0055 46.2437 94.8397 52.8872 88.2271L52.889 88.2258Z" fill="#371A45"/>
<g opacity="0.35">
<path d="M34.9351 36.2894C46.3154 37.6239 55.4928 45.052 59.603 54.9282C59.8271 55.4668 60.0366 56.0134 60.2314 56.5679C61.754 60.9436 62.2635 65.6078 61.7216 70.2091C61.6529 70.7527 61.5775 71.2913 61.4864 71.8223C61.2996 72.9026 61.0563 73.9723 60.7574 75.0271C59.335 80.0431 56.6453 84.6084 52.9473 88.2837C50.9559 90.2664 48.7022 91.9668 46.249 93.3374C50.4632 88.9401 53.2649 83.3823 54.2934 77.3791C54.3859 76.8499 54.4608 76.3113 54.5286 75.766C55.0756 71.1654 54.5664 66.5007 53.0398 62.1265C52.8438 61.5717 52.6343 61.0247 52.4114 60.4855C48.303 50.6106 39.1252 43.1825 27.7435 41.8463C21.362 41.0861 14.9037 42.367 9.29547 45.5053C15.6957 38.8272 25.0409 35.1251 34.9351 36.2894Z" fill="#371A45"/>
</g>
<path d="M62.5529 66.6173C62.5527 67.8418 62.4809 69.0653 62.3379 70.2814C62.2629 70.8918 62.1843 71.4295 62.0973 71.9291C61.9081 73.0305 61.6607 74.1211 61.3562 75.1964C59.8993 80.3129 57.1548 84.9704 53.3849 88.724C46.5883 95.4887 37.2364 98.7273 27.7274 97.6083C21.1535 96.8371 14.996 93.9924 10.1474 89.4866C9.63572 89.0113 9.12761 88.505 8.63746 87.9821C5.56088 84.7021 3.22619 80.7984 1.79194 76.5362C1.48222 75.6124 1.21291 74.6582 0.991176 73.7008C0.901404 73.3201 0.823752 72.9637 0.758668 72.6136C0.140969 69.4464 0.0198248 66.2023 0.399582 62.9978C2.40867 45.921 17.9351 33.6622 35.0101 35.6704C46.2005 36.9838 55.8447 44.271 60.1793 54.6876C60.4064 55.237 60.6219 55.7994 60.8198 56.3605C61.8265 59.2458 62.4012 62.2641 62.5255 65.3175C62.5434 65.7493 62.5526 66.1826 62.5529 66.6173ZM52.5074 87.8425C56.1262 84.2393 58.7607 79.7685 60.1591 74.857C60.4522 73.8231 60.69 72.7743 60.8714 71.715C60.9554 71.2343 61.0308 70.7168 61.103 70.1306C61.4451 67.2162 61.3595 64.2675 60.849 61.3778C60.5711 59.8132 60.1682 58.2733 59.6443 56.773C59.4544 56.2344 59.247 55.6926 59.0284 55.1647C54.8671 45.1642 45.6076 38.1674 34.8633 36.9061C18.4692 34.976 3.56223 46.7482 1.63304 63.1432C1.26781 66.2216 1.38426 69.3381 1.97821 72.3807C2.0406 72.716 2.11287 73.054 2.1995 73.4166C2.4136 74.3399 2.67215 75.2569 2.96929 76.1421C4.34713 80.2341 6.58883 83.9819 9.54236 87.1315C10.0132 87.6333 10.5007 88.119 10.9917 88.575C15.6471 92.9019 21.5598 95.6333 27.8723 96.373C37.0026 97.4471 45.9815 94.3379 52.5074 87.8425Z" fill="#371A45"/>
<path d="M62.7333 66.6173C62.7331 67.8489 62.6609 69.0794 62.517 70.3025C62.4416 70.9169 62.3626 71.4574 62.275 71.9596C62.0848 73.0674 61.8359 74.1643 61.5295 75.2457C60.0641 80.3919 57.3037 85.0765 53.512 88.8519C46.6763 95.6557 37.2705 98.9126 27.7063 97.7873C21.0931 97.0123 14.8987 94.1509 10.0213 89.6181C9.50601 89.1397 8.99521 88.6306 8.50237 88.1046C5.40909 84.8059 3.06158 80.8804 1.61914 76.5945C1.30763 75.665 1.03562 74.7053 0.811194 73.742C0.721423 73.3601 0.643321 73.0005 0.577339 72.6477C-0.0433043 69.4626 -0.164449 66.2004 0.218253 62.978C2.23811 45.802 17.8557 33.4724 35.0294 35.4922C46.2845 36.8132 55.9843 44.1426 60.3449 54.6194C60.5734 55.1719 60.7902 55.7375 60.9891 56.3013C62.0025 59.2035 62.5812 62.2396 62.7064 65.3112C62.724 65.7448 62.733 66.1801 62.7333 66.6173ZM52.38 87.7136C55.9769 84.1324 58.5955 79.6888 59.9859 74.8072C60.2767 73.7799 60.513 72.738 60.6937 71.6858C60.7767 71.2078 60.8522 70.693 60.924 70.1099C61.1089 68.5392 61.169 66.9564 61.1035 65.3762C60.9852 62.4634 60.4364 59.584 59.4751 56.8318C59.2865 56.2968 59.0805 55.7581 58.8633 55.2334C54.727 45.293 45.5228 38.3384 34.8436 37.0848C18.55 35.1686 3.73101 46.8699 1.81349 63.1634C1.45095 66.2231 1.56664 69.3206 2.15642 72.3448C2.21881 72.6783 2.29108 73.0122 2.37636 73.3735C2.58957 74.2923 2.84631 75.2022 3.13942 76.0833C4.50864 80.1507 6.73691 83.876 9.67299 87.0062C10.1411 87.5058 10.6255 87.9883 11.1134 88.4426C15.7408 92.7433 21.618 95.4581 27.8926 96.193C36.9676 97.2608 45.8917 94.1704 52.3791 87.7141L52.38 87.7136Z" fill="#371A45"/>
<path d="M57.7425 82.0922C64.68 61.3814 49.2375 40.5423 28.1628 45.4156C13.8231 48.7313 5.99817 65.3314 10.0648 78.9003C13.0241 88.7752 20.2337 97.1239 36.8167 96.72C36.8167 96.72 44.13 95.408 48.2805 92.0967C52.4311 88.7855 55.9111 84.8656 55.9111 84.8656L57.7425 82.0922Z" fill="#371A45"/>
<path d="M28.161 45.4169C49.2375 40.5432 64.6795 61.3828 57.7434 82.0926L57.3703 82.6541C55.1709 62.7639 38.3083 47.2693 16.9063 51.8001C19.9325 48.7272 23.7361 46.4407 28.161 45.4169Z" fill="#220F2D"/>
<path d="M62.7333 66.6173C62.7332 67.8489 62.6609 69.0794 62.517 70.3025C62.4416 70.9169 62.3626 71.4574 62.2751 71.9596C62.0848 73.0674 61.836 74.1643 61.5295 75.2457C60.0641 80.3919 57.3037 85.0765 53.512 88.8519C46.6764 95.6557 37.2706 98.9126 27.7059 97.7873C22.1838 97.1421 16.9333 95.0374 12.4945 91.6896L12.4281 91.6393L12.3733 91.5765C9.71969 88.5301 7.68502 84.6856 6.32543 80.149C3.9016 72.0696 5.10993 62.6782 9.55227 55.0296C13.6369 48.001 19.9209 43.196 27.2566 41.5006C35.2269 39.6603 42.8638 40.8879 49.3403 45.056C56.1122 49.4131 60.9774 56.7492 62.6889 65.1837L62.7042 65.3094C62.7239 65.7434 62.7333 66.1801 62.7333 66.6173ZM52.38 87.7136C55.9769 84.1324 58.5956 79.6888 59.9859 74.8072C60.2767 73.7799 60.513 72.738 60.6937 71.6858C60.7768 71.2078 60.8522 70.693 60.924 70.1099C61.1055 68.5609 61.1655 67.0001 61.1035 65.4418C59.4666 57.4553 54.8644 50.5204 48.4722 46.4071C42.3678 42.4787 35.1551 41.3233 27.6165 43.0658C20.7207 44.6574 14.7976 49.1945 10.9401 55.834C6.71594 63.1055 5.56596 72.0225 7.86277 79.6867C9.14695 83.9715 11.0528 87.5947 13.5287 90.4593C17.7259 93.6058 22.6819 95.5842 27.8921 96.193C36.9671 97.2608 45.8913 94.1704 52.3787 87.7141L52.38 87.7136Z" fill="#371A45"/>
<path d="M60.2197 71.9228C60.214 75.4676 59.6344 78.988 58.5033 82.3475L58.4696 82.4476L56.5063 85.3971C56.3627 85.5591 52.9348 89.4072 48.7779 92.7229C44.5178 96.1212 37.2625 97.4534 36.9559 97.5086L36.8334 97.5207C22.3227 97.8735 13.0569 91.6856 9.29417 79.1306C7.13248 71.9183 8.20839 63.5382 12.1722 56.7128C15.817 50.4383 21.4308 46.1485 27.9801 44.6345C37.4357 42.4482 46.4883 45.1902 52.8167 52.1574C57.6626 57.4921 60.2197 64.5557 60.2197 71.9228ZM57.0149 81.738C60.3966 71.5332 58.3368 60.621 51.6286 53.2355C45.7037 46.711 37.214 44.1457 28.341 46.1975C22.2284 47.6109 16.9791 51.6313 13.5597 57.5185C9.8144 63.9673 8.79415 71.8743 10.8306 78.6696C14.3546 90.4297 23.0687 96.2307 36.7297 95.9174C37.4182 95.7859 44.0268 94.4595 47.777 91.4679C51.5985 88.4197 54.8882 84.7965 55.2693 84.3723L57.0149 81.738Z" fill="#371A45"/>
<path d="M32.2034 32.6487C34.1335 33.3979 35.6367 34.6883 36.3598 36.425C38.0484 40.4831 34.8234 45.438 29.1574 47.4929C28.6906 47.6621 28.2211 47.8071 27.7534 47.9265C22.535 49.2645 17.3848 47.5889 15.8358 43.8657C14.1467 39.8076 17.37 34.8508 23.0377 32.7959C26.2807 31.6199 29.6215 31.6487 32.2034 32.6487Z" fill="white"/>
<g opacity="0.35">
<path d="M32.2034 32.6487C34.1335 33.3978 35.6367 34.6883 36.3598 36.4249C38.0484 40.4831 34.8234 45.438 29.1574 47.4929C28.6906 47.6621 28.2211 47.8071 27.7534 47.9265C28.5923 46.9614 29.7284 44.955 26.9082 43.1039L26.7713 38.4358C26.7713 38.4358 28.8325 34.8414 32.2034 32.6487Z" fill="#371A45"/>
</g>
<path d="M37.6139 38.684C37.6139 39.7034 37.3855 40.7488 36.9294 41.7847C35.6847 44.6152 32.9516 46.9708 29.4299 48.2483C23.3748 50.4436 16.944 48.6164 15.0952 44.1749C14.3564 42.4001 14.4152 40.44 15.2658 38.5058C16.51 35.6753 19.2435 33.3197 22.7648 32.0423C28.8204 29.8469 35.2511 31.6742 37.1 36.1157C37.4401 36.9292 37.6148 37.8023 37.6139 38.684ZM16.1886 41.6052C16.1872 42.2749 16.3191 42.9381 16.5764 43.5564C18.1026 47.2182 23.6235 48.6455 28.8832 46.7379C31.9485 45.6261 34.4073 43.5326 35.4608 41.1375C36.13 39.6145 36.1843 38.0911 35.6188 36.7311C34.0926 33.0693 28.5717 31.6419 23.312 33.5496C20.2467 34.6623 17.7879 36.7575 16.7344 39.1513C16.3709 39.9781 16.1886 40.8053 16.1886 41.6052Z" fill="#371A45"/>
<path d="M34.4701 35.1908C33.5475 31.7383 29.0479 29.9419 24.4199 31.1785C19.7919 32.4151 16.7881 36.2164 17.7106 39.669C18.6331 43.1215 23.1327 44.9179 27.7607 43.6813C32.3887 42.4447 35.3926 38.6434 34.4701 35.1908Z" fill="white"/>
<path d="M34.7116 36.4357C34.7114 36.6802 34.6946 36.9243 34.6613 37.1665C34.1568 40.8637 29.9034 43.9949 25.1792 44.1466C22.5336 44.2315 20.2018 43.3768 18.7812 41.8009C17.7358 40.6411 17.2928 39.2191 17.5019 37.6898C18.0065 33.9926 22.2598 30.8614 26.984 30.7096C29.6292 30.6248 31.9614 31.4794 33.3816 33.0554C34.2587 34.028 34.7116 35.1865 34.7116 36.4357ZM17.6195 38.4183C17.6195 39.6275 18.0572 40.747 18.906 41.6882C20.2934 43.2269 22.5776 44.0618 25.1738 43.9774C29.8195 43.8279 34.001 40.7618 34.4948 37.1422C34.6959 35.661 34.2704 34.2879 33.2573 33.1658C31.8699 31.6271 29.5852 30.7922 26.9894 30.8766C22.3433 31.0261 18.1618 34.0922 17.668 37.7118C17.636 37.946 17.6198 38.182 17.6195 38.4183Z" fill="#371A45"/>
<g opacity="0.35">
<path d="M31.619 41.9221C30.2576 42.8423 28.6386 43.3916 26.998 43.5761C29.9263 41.2169 30.1876 37.6808 27.4823 35.4195C25.7345 33.958 23.1486 33.3664 20.6099 33.6532C20.7939 33.5033 20.9918 33.3588 21.1979 33.2192C24.6666 30.878 29.8114 30.93 32.6886 33.3323C35.5658 35.7346 35.086 39.5822 31.619 41.9221Z" fill="#371A45"/>
</g>
<path d="M35.3665 36.0843C35.3665 36.8419 35.1964 37.6216 34.8566 38.3981C33.8574 40.6837 31.4744 42.6883 28.4828 43.7597C23.3851 45.5857 18.2278 44.2804 16.7416 40.7883C16.181 39.4713 16.2218 38.0054 16.8592 36.5479C17.8584 34.2624 20.2413 32.2582 23.233 31.1863C28.3306 29.3608 33.488 30.6657 34.9742 34.1578C35.234 34.7668 35.3674 35.4222 35.3665 36.0843ZM17.9576 38.8627C17.956 39.3085 18.0448 39.7499 18.2188 40.1603C19.3535 42.8261 23.7155 43.7633 27.9428 42.2493C30.5265 41.3242 32.562 39.6459 33.3879 37.7558C33.8435 36.7131 33.8817 35.6866 33.4992 34.7866C32.3641 32.1209 28.0021 31.1836 23.7752 32.6976C21.1916 33.6232 19.156 35.301 18.3301 37.1911C18.0805 37.7589 17.9576 38.3223 17.9576 38.8627Z" fill="#371A45"/>
<g opacity="0.5">
<path d="M13.7863 69.8599C13.7863 69.8599 18.3997 82.3094 27.7983 87.1005C27.8082 87.1059 27.8181 87.1108 27.8279 87.1158C29.8093 88.1198 32.0223 88.5781 34.2394 88.4435C37.1709 88.2693 39.1652 87.7195 40.9023 87.1683C46.1844 85.4886 48.3452 83.7121 48.3452 83.7121C46.5098 87.6037 43.8795 90.304 39.4937 91.7466C39.0611 91.8876 38.6104 92.0171 38.1418 92.1353C38.0341 92.1632 37.9268 92.1878 37.8186 92.2116C37.8186 92.2116 37.8155 92.2116 37.8119 92.2116C36.5902 92.4302 35.3564 92.5753 34.1173 92.6461C29.7284 92.897 23.7038 92.2758 19.6269 87.9663C12.0071 79.9107 13.0964 69.6004 13.7863 69.8599Z" fill="white"/>
</g>
<g opacity="0.5">
<path d="M27.618 53.6709C26.4021 51.7705 23.6212 51.3784 21.4067 52.7952C19.1922 54.212 18.3826 56.9011 19.5985 58.8016C20.8143 60.702 23.5952 61.0941 25.8097 59.6773C28.0242 58.2606 28.8338 55.5714 27.618 53.6709Z" fill="white"/>
</g>
<g opacity="0.5">
<path d="M32.4397 50.3804C31.8731 49.641 30.7152 49.5767 29.8536 50.2369C28.9919 50.8972 28.7527 52.0319 29.3193 52.7714C29.8859 53.5108 31.0437 53.5751 31.9054 52.9148C32.7671 52.2546 33.0063 51.1199 32.4397 50.3804Z" fill="white"/>
</g>
<path d="M82.7007 73.4409C82.7007 71.2068 80.8897 69.3958 78.6556 69.3958C76.4216 69.3958 74.6105 71.2068 74.6105 73.4409C74.6105 75.6749 76.4216 77.486 78.6556 77.486C80.8897 77.486 82.7007 75.6749 82.7007 73.4409Z" fill="white"/>
<g opacity="0.35">
<path d="M79.4757 77.4011C80.0032 77.301 80.5056 77.0969 80.9534 76.8007C81.4013 76.5045 81.7856 76.122 82.0842 75.6757C82.3827 75.2294 82.5894 74.7281 82.6922 74.2011C82.795 73.6741 82.7919 73.1319 82.683 72.6061C82.5741 72.0803 82.3616 71.5815 82.058 71.1386C81.7543 70.6958 81.3655 70.3178 80.9143 70.0268C80.4631 69.7357 79.9584 69.5374 79.4298 69.4434C78.9011 69.3494 78.359 69.3616 77.8351 69.4793C77.2485 69.5991 76.6963 69.8491 76.2192 70.2109C76.9637 70.3914 77.6417 70.7796 78.1742 71.3303C78.7067 71.881 79.072 72.5716 79.2275 73.3217C79.383 74.0718 79.3223 74.8507 79.0525 75.5677C78.7828 76.2847 78.315 76.9104 77.7036 77.372C78.2847 77.5142 78.8903 77.5242 79.4757 77.4011Z" fill="#371A45"/>
</g>
<path d="M83.4647 73.4418C83.4629 74.5472 83.081 75.6183 82.3831 76.4755C81.6851 77.3327 80.7135 77.9237 79.6314 78.1494C78.6598 78.3502 77.6497 78.2453 76.74 77.8492C75.8303 77.4531 75.0655 76.7851 74.5506 75.9369C74.0357 75.0887 73.796 74.102 73.8642 73.1121C73.9325 72.1223 74.3055 71.1778 74.932 70.4084C75.5585 69.639 76.4078 69.0823 77.3633 68.8149C78.3188 68.5474 79.3337 68.5823 80.2686 68.9146C81.2035 69.247 82.0126 69.8606 82.5848 70.6711C83.1571 71.4817 83.4644 72.4495 83.4647 73.4418ZM79.3217 76.6547C80.0653 76.5004 80.7323 76.0932 81.2093 75.5022C81.6862 74.9113 81.9435 74.1733 81.9374 73.4139C81.9312 72.6546 81.6619 71.9208 81.1754 71.3378C80.689 70.7547 80.0153 70.3583 79.2694 70.2161C78.5234 70.074 77.7513 70.1949 77.0844 70.5582C76.4176 70.9216 75.8974 71.5049 75.6124 72.2087C75.3274 72.9126 75.2953 73.6935 75.5215 74.4184C75.7477 75.1434 76.2183 75.7674 76.853 76.1843C77.5811 76.662 78.469 76.8312 79.3217 76.6547Z" fill="#371A45"/>
<path d="M88.7666 68.393L87.1763 47.9588C86.9891 45.5399 84.8552 43.713 82.4336 43.9011L71.5596 44.7472C69.4392 44.9124 67.7771 46.5691 67.5226 48.6038C67.4853 48.8978 67.4784 49.1949 67.502 49.4903L69.0918 69.9218C69.2794 72.3456 71.4133 74.1703 73.8344 73.979L82.4471 73.3107L84.7089 73.1356C87.1305 72.948 88.9537 70.8119 88.7666 68.393Z" fill="white"/>
<path d="M68.6959 27.942C68.6959 27.942 68.6412 25.23 71.7706 24.4117C73.7658 23.8897 76.0388 25.0132 76.0388 25.0132C76.0388 25.0132 80.2441 32.4853 80.3079 45.2957C80.3079 45.2957 76.7336 49.3579 73.0947 45.6158C73.0947 45.6158 72.1126 33.9392 68.6959 27.942Z" fill="white"/>
<path d="M88.7666 68.393L87.1763 47.9588C86.9891 45.5399 84.8552 43.713 82.4336 43.9011L71.5596 44.7472C69.4392 44.9124 67.7771 46.5691 67.5226 48.6038C67.4853 48.8978 67.4784 49.1949 67.502 49.4903L69.0918 69.9218C69.2794 72.3456 71.4133 74.1703 73.8344 73.979L82.4471 73.3107L84.7089 73.1356C87.1305 72.948 88.9537 70.8119 88.7666 68.393Z" fill="white"/>
<path d="M68.6959 27.942C68.6959 27.942 68.6412 25.23 71.7706 24.4117C73.7658 23.8897 76.0388 25.0132 76.0388 25.0132C76.0388 25.0132 80.2441 32.4853 80.3079 45.2957C80.3079 45.2957 76.7336 49.3579 73.0947 45.6158C73.0947 45.6158 72.1126 33.9392 68.6959 27.942Z" fill="white"/>
<g opacity="0.35">
<path d="M85.1672 42.3175C87.5884 42.1304 89.7218 43.9568 89.9107 46.3761L91.5001 66.8099C91.6878 69.2292 89.865 71.3644 87.4416 71.5534L85.1807 71.7271L76.5671 72.3959C74.146 72.5871 72.0126 70.7603 71.8254 68.3392L70.236 47.9072C70.2119 47.6121 70.2185 47.3153 70.2557 47.0216C70.5111 44.9869 72.1728 43.3297 74.2928 43.1659L75.7291 43.0537C75.4239 40.2541 74.3533 32.0989 71.8038 27.0582C73.9714 26.2125 74.6052 25.9782 77.305 24.8588C79.4052 27.3055 82.3937 31.4013 83.0194 42.485L85.1672 42.3175Z" fill="#371A45"/>
</g>
<path d="M88.7666 68.393L87.1763 47.9588C86.9891 45.5399 84.8552 43.713 82.4336 43.9011L71.5596 44.7472C69.4392 44.9124 67.7771 46.5691 67.5226 48.6038C67.4853 48.8978 67.4784 49.1949 67.502 49.4903L69.0918 69.9218C69.2794 72.3456 71.4133 74.1703 73.8344 73.979L82.4471 73.3107L84.7089 73.1356C87.1305 72.948 88.9537 70.8119 88.7666 68.393Z" fill="white"/>
<g opacity="0.35">
<path d="M88.7666 68.393L87.1763 47.9588C86.9891 45.5399 84.8553 43.713 82.4337 43.9011L71.5597 44.7472C69.4393 44.9124 67.7771 46.5691 67.5226 48.6038C68.3836 49.7044 68.9343 50.4028 68.9343 50.4028C77.7404 50.717 84.1815 49.8314 84.3373 63.4448C84.3912 68.1381 83.26 71.3725 82.4472 73.3107L84.7089 73.1356C87.1305 72.948 88.9538 70.8119 88.7666 68.393Z" fill="#371A45"/>
</g>
<path d="M89.544 68.7386C89.5415 70.0411 89.0488 71.295 88.1639 72.2507C87.2789 73.2064 86.0667 73.7939 84.7682 73.8965L73.8924 74.7421C72.5242 74.8472 71.1702 74.4052 70.1275 73.5133C69.0847 72.6213 68.4383 71.3521 68.3301 69.9842L66.7403 49.55C66.6371 48.1822 67.0798 46.8292 67.9713 45.7868C68.8629 44.7444 70.1309 44.0974 71.4982 43.9873L82.374 43.1412C83.7422 43.0362 85.0962 43.4782 86.139 44.3701C87.1818 45.2621 87.8283 46.5312 87.9367 47.8991L89.5265 68.3324C89.5387 68.4693 89.544 68.6049 89.544 68.7386ZM68.2516 49.146C68.2516 49.2407 68.2547 49.3359 68.2624 49.4315L69.8522 69.8648C69.9283 70.8295 70.384 71.7246 71.1193 72.3537C71.8546 72.9829 72.8095 73.2946 73.7743 73.2205L84.6502 72.3748C85.614 72.2962 86.5076 71.8397 87.1363 71.105C87.765 70.3702 88.0777 69.4166 88.0063 68.4523L86.4164 48.0194C86.3403 47.0546 85.8846 46.1595 85.1493 45.5303C84.414 44.9011 83.4592 44.5893 82.4943 44.6633L71.6185 45.5103C70.7032 45.5825 69.8486 45.9967 69.2247 46.6704C68.6009 47.344 68.2535 48.2278 68.2516 49.146Z" fill="#371A45"/>
<path d="M88.75 69.2198C88.7846 68.9456 88.7902 68.6684 88.7666 68.393L87.1763 47.9588C87.1086 47.114 86.7994 46.3065 86.2857 45.6323C85.7721 44.9582 85.0755 44.446 84.2789 44.1565C83.6895 43.9399 83.0601 43.8538 82.4341 43.9042L77.6031 44.2781L76.0087 44.4016L71.5597 44.7477C69.1358 44.9357 67.3144 47.0718 67.502 49.4907L67.8467 53.9061C68.0711 51.8414 69.7454 50.1514 71.8864 49.9836L77.7602 49.5248L82.7636 49.1366C85.182 48.949 87.3186 50.7754 87.5062 53.1938L88.75 69.2198Z" fill="white"/>
<g opacity="0.35">
<path d="M88.75 69.2198C88.7846 68.9456 88.7902 68.6684 88.7666 68.393L87.1763 47.9588C86.9891 45.5399 84.8553 43.713 82.4341 43.9042L76.0087 44.4016C77.1843 44.8271 78.6494 45.6422 78.9106 47.1082C79.056 47.9125 78.5344 48.7555 77.7606 49.5248L82.764 49.1366C85.1825 48.949 87.319 50.7754 87.5067 53.1938L88.75 69.2198Z" fill="#371A45"/>
</g>
<path d="M89.544 68.7301C89.5441 68.9251 89.5324 69.12 89.509 69.3136L87.9901 69.2813L86.7445 53.2544C86.6664 52.2908 86.2101 51.3973 85.4755 50.7689C84.7408 50.1405 83.7873 49.8284 82.8233 49.9005L71.947 50.7466C71.0995 50.8136 70.3018 51.1742 69.6916 51.7662C69.0813 52.3582 68.6967 53.1445 68.6039 53.9896L67.0841 53.9658L66.7398 49.5522C66.637 48.184 67.0801 46.8307 67.9723 45.7882C68.8645 44.7458 70.1331 44.0991 71.5009 43.9895L82.3753 43.1434C83.7433 43.0397 85.0967 43.482 86.1393 44.3737C87.1819 45.2654 87.8288 46.5338 87.9385 47.9013L89.5274 68.336C89.5382 68.4653 89.544 68.5977 89.544 68.7301ZM68.3786 50.9293C69.2662 49.9376 70.5021 49.3267 71.829 49.2237L82.7043 48.3776C83.382 48.3235 84.0637 48.4044 84.7099 48.6158C85.356 48.8271 85.9538 49.1647 86.4685 49.6088C86.4945 49.6308 86.5196 49.6537 86.5448 49.6752L86.4164 48.0185C86.3378 47.0549 85.8813 46.1615 85.1465 45.5332C84.4118 44.9049 83.4584 44.5927 82.4943 44.6646L71.6185 45.5103C70.6545 45.5885 69.7606 46.0449 69.1317 46.7797C68.5029 47.5146 68.1902 48.4683 68.2619 49.4328L68.3786 50.9293Z" fill="#371A45"/>
<path d="M78.0407 57.6106C78.4447 57.5769 81.6401 56.7407 81.6401 56.7407L81.4489 54.4515C81.3169 52.8747 79.5776 51.7328 77.5631 51.9011C75.5487 52.0694 74.0235 53.4842 74.1554 55.0611L74.3466 57.3502C74.3466 57.3502 77.3863 57.6653 78.0407 57.6106Z" fill="#22A7F0"/>
<g opacity="0.35">
<path d="M78.0407 57.6106C78.4447 57.5769 81.6401 56.7407 81.6401 56.7407L81.4489 54.4515C81.3169 52.8747 79.5776 51.7328 77.5631 51.9011C75.5487 52.0694 74.0235 53.4842 74.1554 55.0611L74.3466 57.3502C74.3466 57.3502 77.3863 57.6653 78.0407 57.6106Z" fill="#371A45"/>
</g>
<path d="M82.2506 57.1725L81.7851 57.2946C81.022 57.4934 78.5084 58.1474 78.0883 58.1811C77.3998 58.2385 74.6043 57.9526 74.2878 57.9198L73.8156 57.8709L73.5849 55.1077C73.5059 54.1651 73.8897 53.2513 74.6653 52.5322C75.4023 51.8486 76.4159 51.4217 77.5156 51.3297C79.8411 51.1354 81.8614 52.5138 82.0194 54.4026L82.2506 57.1725ZM77.9923 57.0378C78.2144 57.0149 79.6342 56.6662 81.0297 56.3057L80.8784 54.4959C80.7729 53.2365 79.3074 52.3266 77.6112 52.4685C76.7637 52.5394 75.9953 52.8594 75.4436 53.3693C74.9319 53.8442 74.677 54.4282 74.7255 55.0099L74.8772 56.826C76.0397 56.9413 77.608 57.0719 77.9923 57.0401V57.0378Z" fill="#371A45"/>
<path d="M81.6365 56.7361C81.5046 55.1593 79.765 54.0176 77.7509 54.186C75.7368 54.3544 74.211 55.7692 74.3429 57.346C74.4747 58.9229 76.2143 60.0646 78.2284 59.8962C80.2425 59.7278 81.7683 58.313 81.6365 56.7361Z" fill="#22A7F0"/>
<g opacity="0.35">
<path d="M77.7552 54.1903C79.7684 54.021 81.509 55.1634 81.641 56.7398C81.773 58.3162 80.2464 59.7332 78.2297 59.9002C77.9635 59.9233 77.6958 59.9224 77.4298 59.8975C78.7791 59.3759 79.6777 58.2493 79.5736 57.0248C79.4595 55.663 78.1466 54.6239 76.4904 54.478C76.8962 54.3226 77.3221 54.2257 77.7552 54.1903Z" fill="#371A45"/>
</g>
<path d="M77.7552 54.1903C77.8906 54.1784 78.0265 54.1736 78.1623 54.1759C76.6106 54.6207 75.5379 55.8367 75.6487 57.1707C75.7731 58.6398 77.292 59.7337 79.1292 59.7345C78.8361 59.8192 78.5354 59.8747 78.2315 59.9002C76.2188 60.0694 74.4781 58.9271 74.3461 57.3507C74.2142 55.7743 75.7403 54.3595 77.7552 54.1903Z" fill="white"/>
<path d="M82.2205 56.9279C82.2205 58.7206 80.5085 60.2849 78.28 60.4711C77.1789 60.5609 76.1097 60.31 75.2695 59.7583C74.3852 59.178 73.8547 58.3395 73.7761 57.3978C73.6177 55.5068 75.3817 53.8137 77.7068 53.6198C78.8083 53.5278 79.877 53.7809 80.7173 54.3326C81.602 54.9125 82.1321 55.7509 82.2106 56.6931C82.2173 56.7716 82.2205 56.8502 82.2205 56.9279ZM78.1844 59.3301C79.8806 59.1883 81.1711 58.046 81.0696 56.7883C81.0207 56.2047 80.6728 55.6724 80.0893 55.2895C79.4609 54.8779 78.6498 54.6898 77.8024 54.7608C76.1066 54.9026 74.8121 56.0467 74.9171 57.3026C74.966 57.8862 75.3139 58.4181 75.8979 58.8014C76.5263 59.213 77.3374 59.4011 78.1844 59.3301Z" fill="#371A45"/>
<path d="M88.7661 62.0475C88.7661 62.1892 88.7135 62.3259 88.6184 62.431C88.5234 62.5362 88.3927 62.6023 88.2518 62.6167L81.6329 63.29C81.4473 63.3087 81.2692 63.3732 81.1146 63.4777C80.96 63.5822 80.8338 63.7234 80.7473 63.8887L79.6799 65.9203C79.5028 66.2609 79.2419 66.5508 78.9219 66.7628C78.6018 66.9748 78.2331 67.1019 77.8504 67.1322L68.9392 67.8566C68.8643 67.8627 68.7889 67.854 68.7174 67.831C68.6458 67.808 68.5795 67.771 68.5222 67.7224C68.4649 67.6737 68.4178 67.6143 68.3835 67.5474C68.3492 67.4805 68.3284 67.4075 68.3223 67.3326C68.3162 67.2577 68.3249 67.1823 68.3479 67.1107C68.3709 67.0392 68.4079 66.9729 68.4565 66.9156C68.5052 66.8583 68.5646 66.8111 68.6315 66.7768C68.6984 66.7425 68.7714 66.7217 68.8463 66.7156L77.7575 65.9912C77.9475 65.9761 78.1305 65.913 78.2895 65.8079C78.4484 65.7028 78.5781 65.5591 78.6664 65.3902L79.7333 63.3586C79.9077 63.0257 80.162 62.7413 80.4734 62.5308C80.7848 62.3204 81.1436 62.1906 81.5175 62.153L88.1359 61.4797C88.2871 61.4643 88.4382 61.5095 88.5561 61.6055C88.6739 61.7014 88.7488 61.8402 88.7643 61.9914C88.7652 62.0089 88.7661 62.0282 88.7661 62.0475Z" fill="#371A45"/>
<path d="M68.6959 27.942C68.6959 27.942 68.6412 25.23 71.7706 24.4117C73.7658 23.8897 76.0388 25.0132 76.0388 25.0132C76.0388 25.0132 80.2441 32.4853 80.3079 45.2957C80.3079 45.2957 76.7336 49.3579 73.0947 45.6158C73.0947 45.6158 72.1126 33.9392 68.6959 27.942Z" fill="white"/>
<g opacity="0.35">
<path d="M76.0397 25.0128C76.0397 25.0128 80.2441 32.484 80.3088 45.2957C80.3088 45.2957 77.9783 47.944 75.1644 46.9951C75.1797 46.9902 75.1945 46.9848 75.2093 46.9798C76.7139 46.4457 77.687 44.973 77.6255 43.3777C77.1766 31.7649 73.3986 25.0505 73.3986 25.0505C72.8259 24.786 72.2251 24.5873 71.6077 24.458C71.6611 24.4418 71.7158 24.4256 71.771 24.4131C73.7653 23.8906 76.0397 25.0128 76.0397 25.0128Z" fill="#371A45"/>
</g>
<path d="M81.0561 44.249C81.0568 44.7456 80.9387 45.2352 80.7117 45.6769C80.4847 46.1186 80.1554 46.4996 79.7513 46.7882C77.6618 48.2793 75.4575 48.3592 73.5454 47.0081C73.1834 46.7522 72.8802 46.4221 72.6557 46.0399C72.4313 45.6576 72.2908 45.232 72.2437 44.7912C71.9802 42.3499 70.9222 33.9953 68.3858 28.9815C67.9683 28.1565 67.9239 27.2117 68.2646 26.3889C68.6555 25.4428 69.5479 24.2035 71.5758 23.6734C72.9224 23.321 74.3385 23.6065 75.2901 23.9077C75.7009 24.0399 76.0799 24.256 76.4029 24.5423C76.7259 24.8285 76.986 25.1787 77.1668 25.5707C78.2579 27.9209 80.8213 34.4379 81.0534 44.1736L81.0561 44.249ZM69.5654 27.5394C69.5667 27.8012 69.6296 28.0591 69.7489 28.2921C72.3299 33.3934 73.4157 41.4149 73.7626 44.6269C73.7861 44.8521 73.8573 45.0697 73.9715 45.2652C74.0856 45.4607 74.2401 45.6296 74.4247 45.7607C75.8049 46.7348 77.2974 46.662 78.8639 45.5453C79.0751 45.3937 79.246 45.1928 79.3618 44.9601C79.4776 44.7273 79.5347 44.4698 79.5282 44.2099C79.3038 34.761 76.835 28.477 75.7829 26.2139C75.6916 26.0135 75.5598 25.8343 75.3957 25.6875C75.2316 25.5407 75.0388 25.4296 74.8296 25.3611C74.0705 25.1209 72.9569 24.8884 71.9627 25.1483C70.8222 25.4468 70.0528 26.0599 69.6762 26.9707C69.6025 27.1511 69.5651 27.3444 69.5663 27.5394H69.5654Z" fill="#371A45"/>
<path d="M59.7134 83.313C57.4565 84.1802 53.7566 74.1563 52.4468 69.8132C49.4723 59.9504 41.9373 57.7609 37.5362 60.9339C29.2737 66.8916 35.8822 88.3281 42.0832 94.6498C44.2942 96.904 49.725 101.787 58.2842 100.567" fill="white"/>
<g opacity="0.35">
<path d="M52.4473 69.8123C53.6677 73.8682 56.974 82.8714 59.2443 83.3467C55.3752 91.3884 51.0482 76.937 49.9157 72.7599C47.6818 64.5261 43.7597 60.2085 40.3174 59.7251C44.6242 58.8638 50.0351 61.8155 52.4473 69.8123Z" fill="#371A45"/>
</g>
<g opacity="0.35">
<path d="M59.7013 82.3076L59.4189 83.3651C59.361 83.3656 59.3031 83.3595 59.2466 83.3467C59.4199 83.0103 59.5718 82.6632 59.7013 82.3076Z" fill="#371A45"/>
</g>
<path d="M60.4769 83.313C60.477 83.4674 60.4302 83.6182 60.3428 83.7455C60.2553 83.8728 60.1314 83.9705 59.9872 84.0258C59.6883 84.1407 59.2089 84.2175 58.6249 83.9316C55.4726 82.387 51.8678 70.5372 51.7161 70.0336C50.2798 65.2694 47.5287 61.8846 44.1695 60.7467C41.9781 60.0043 39.7231 60.2979 37.9829 61.5547C35.981 62.9977 34.8108 65.5432 34.5056 69.1202C33.778 77.6359 38.3545 89.7595 42.6299 94.1166C47.1449 98.7201 52.3759 100.637 58.1752 99.8112C58.2744 99.7971 58.3755 99.8027 58.4726 99.8276C58.5697 99.8526 58.661 99.8964 58.7411 99.9566C58.8213 100.017 58.8888 100.092 58.9399 100.179C58.9909 100.265 59.0244 100.36 59.0385 100.46C59.0527 100.559 59.0471 100.66 59.0221 100.757C58.9972 100.854 58.9534 100.945 58.8932 101.026C58.833 101.106 58.7576 101.173 58.6712 101.224C58.5849 101.275 58.4894 101.309 58.3902 101.323C52.0824 102.221 46.4124 100.156 41.5369 95.1844C36.9469 90.5046 32.2101 78.0425 32.983 68.9886C33.3278 64.9489 34.7094 62.0314 37.0883 60.3149C39.2343 58.7677 41.993 58.3983 44.6578 59.3005C48.4906 60.5991 51.5954 64.3502 53.1762 69.5928C54.8729 75.2188 57.6949 81.7766 59.2955 82.5607C59.37 82.5971 59.4216 82.6056 59.4383 82.6007C59.5539 82.5562 59.6786 82.5405 59.8016 82.5549C59.9247 82.5694 60.0423 82.6136 60.1445 82.6837C60.2466 82.7539 60.3301 82.8478 60.3878 82.9575C60.4455 83.0671 60.4756 83.1891 60.4756 83.313H60.4769Z" fill="#371A45"/>
<path d="M51.6497 14.0453C51.6496 14.1684 51.6156 14.2891 51.5514 14.3941C46.5175 22.6728 34.1357 25.7502 33.6097 25.8768C33.4377 25.9144 33.2579 25.8833 33.1087 25.79C32.9594 25.6967 32.8526 25.5486 32.8112 25.3776C32.7698 25.2065 32.797 25.026 32.887 24.8748C32.977 24.7235 33.1227 24.6135 33.2928 24.5684C33.4162 24.5383 45.6601 21.4914 50.401 13.6948C50.4773 13.5691 50.5927 13.4719 50.7294 13.418C50.8662 13.3641 51.0168 13.3564 51.1584 13.3961C51.2999 13.4358 51.4246 13.5208 51.5133 13.6381C51.602 13.7553 51.6499 13.8983 51.6497 14.0453Z" fill="#371A45"/>
<path d="M57.7941 81.1684V81.1733C57.7635 85.5272 55.5354 89.4417 51.6815 91.9078C47.9847 94.2737 43.5666 94.7804 40.1508 93.2355C40.0703 93.199 39.9977 93.147 39.9372 93.0825C39.8768 93.0179 39.8297 92.9421 39.7985 92.8594C39.7673 92.7766 39.7528 92.6885 39.7557 92.6001C39.7586 92.5118 39.7788 92.4248 39.8153 92.3443C39.8518 92.2637 39.9038 92.1911 39.9683 92.1307C40.0329 92.0702 40.1087 92.0231 40.1914 91.9919C40.2742 91.9608 40.3623 91.9462 40.4506 91.9491C40.539 91.952 40.626 91.9723 40.7065 92.0087C43.7112 93.3697 47.6387 92.8966 50.9557 90.7739C54.4187 88.5579 56.4201 85.055 56.4475 81.1639C56.4481 80.9853 56.5196 80.8143 56.6463 80.6885C56.773 80.5626 56.9445 80.4923 57.123 80.4929C57.3016 80.4935 57.4726 80.565 57.5985 80.6916C57.7243 80.8183 57.7947 80.9898 57.7941 81.1684Z" fill="#371A45"/>
<path d="M105.575 64.7025C105.574 64.8529 105.524 64.9989 105.431 65.1172C105.338 65.2356 105.209 65.3195 105.063 65.3556C99.339 66.7744 96.7536 81.2559 96.2383 86.7154C96.23 86.8034 96.2045 86.8889 96.1632 86.9671C96.1219 87.0453 96.0656 87.1146 95.9975 87.171C95.9294 87.2274 95.8509 87.2698 95.7664 87.2959C95.6819 87.322 95.5931 87.3312 95.5051 87.3229C95.417 87.3146 95.3315 87.2891 95.2533 87.2478C95.1751 87.2065 95.1059 87.1502 95.0494 87.0821C94.993 87.014 94.9506 86.9355 94.9245 86.851C94.8985 86.7665 94.8893 86.6777 94.8975 86.5897C94.9765 85.7494 96.9174 65.9871 104.737 64.0481C104.836 64.0235 104.94 64.0218 105.04 64.0432C105.14 64.0645 105.234 64.1084 105.314 64.1714C105.395 64.2345 105.46 64.315 105.504 64.4069C105.549 64.4989 105.572 64.5998 105.572 64.7021L105.575 64.7025Z" fill="#371A45"/>
<path d="M107.19 34.8723C107.19 35.3086 107.172 35.713 107.136 36.0802C107.118 36.2579 107.031 36.4212 106.892 36.5342C106.754 36.6472 106.577 36.7007 106.399 36.6828C106.221 36.6649 106.058 36.5772 105.945 36.439C105.832 36.3007 105.778 36.1232 105.796 35.9455C106.317 30.7226 102.872 17.7448 98.4736 16.6613C98.3878 16.6401 98.3069 16.6023 98.2357 16.5499C98.1645 16.4974 98.1043 16.4315 98.0585 16.3559C98.0128 16.2802 97.9824 16.1963 97.9691 16.1088C97.9558 16.0214 97.9598 15.9322 97.981 15.8464C98.0022 15.7605 98.04 15.6797 98.0924 15.6085C98.1448 15.5373 98.2107 15.477 98.2864 15.4313C98.3621 15.3856 98.446 15.3552 98.5335 15.3419C98.6209 15.3286 98.71 15.3326 98.7959 15.3538C102.124 16.1738 104.287 21.3725 105.28 24.3987C106.46 27.994 107.19 32.0737 107.19 34.8723Z" fill="#371A45"/>
<path d="M111.934 88.25C111.892 88.0965 111.869 87.9915 111.844 87.868C111.819 87.7446 111.799 87.6319 111.779 87.5134C111.743 87.2787 111.712 87.0444 111.694 86.8119C111.653 86.3492 111.636 85.8848 111.642 85.4204C111.661 84.5024 111.749 83.5871 111.906 82.6824C112.065 81.7847 112.265 80.8977 112.564 80.04C112.628 79.8236 112.713 79.6126 112.797 79.4021C112.882 79.1916 112.964 78.9811 113.055 78.7737C113.243 78.3594 113.452 77.9549 113.681 77.5618C113.67 78.0219 113.629 78.4681 113.584 78.9084C113.556 79.3572 113.501 79.7922 113.462 80.2303L113.344 81.5364C113.328 81.7532 113.299 81.9683 113.285 82.1846L113.245 82.8327C113.2 83.695 113.179 84.5541 113.206 85.4038C113.216 85.8284 113.241 86.2517 113.274 86.6682C113.289 86.8778 113.314 87.0834 113.335 87.2886L113.373 87.5906C113.385 87.6853 113.403 87.798 113.414 87.86L113.424 87.9196C113.452 88.1109 113.406 88.3057 113.296 88.4646C113.186 88.6236 113.02 88.735 112.831 88.7762C112.643 88.8174 112.445 88.7854 112.279 88.6866C112.113 88.5879 111.99 88.4297 111.936 88.2442L111.934 88.25Z" fill="#371A45"/>
<path d="M115.543 22.6782C114.535 22.364 113.643 21.715 112.89 20.951C112.127 20.1839 111.544 19.2512 111.08 18.2664C110.879 17.7632 110.662 17.2583 110.533 16.7309C110.463 16.4687 110.373 16.208 110.331 15.9404L110.194 15.1388C110.141 14.8695 110.129 14.6002 110.112 14.3308C110.095 14.0615 110.078 13.7922 110.067 13.5229C110.067 12.9843 110.107 12.4501 110.142 11.9164C110.162 11.7252 110.252 11.5482 110.396 11.4209C110.54 11.2936 110.727 11.2253 110.919 11.2297C111.111 11.234 111.295 11.3108 111.433 11.4445C111.571 11.5782 111.653 11.7591 111.664 11.951V12.0318C111.671 12.5219 111.653 13.0103 111.652 13.4964C111.668 13.7385 111.68 13.9806 111.69 14.2227C111.693 14.4644 111.712 14.7056 111.746 14.9449L111.832 15.663C111.845 15.7827 111.867 15.9013 111.896 16.0181L111.968 16.3709C112.04 16.8507 112.21 17.2987 112.332 17.7668C112.655 18.6809 113.082 19.5545 113.606 20.3702C114.147 21.2215 114.798 21.9975 115.543 22.6782Z" fill="#371A45"/>
</svg>
