<svg width="98" height="153" viewBox="0 0 98 153" fill="none" xmlns="http://www.w3.org/2000/svg">
<g opacity="0.2">
<path d="M50.9795 2.86102e-06C27.5365 2.86102e-06 8.53216 2.48333 8.53216 5.54668C8.53216 8.61003 27.5365 11.0934 50.9795 11.0934C74.4225 11.0934 93.4268 8.61003 93.4268 5.54668C93.4268 2.48333 74.4225 2.86102e-06 50.9795 2.86102e-06Z" fill="#371A45"/>
</g>
<path d="M30.0328 84.4255H62.1788C67.1228 84.4255 71.1307 80.4176 71.1307 75.4736V44.1389C71.1307 39.195 67.1228 35.1871 62.1788 35.1871L30.0328 35.1871C25.0888 35.1871 21.0809 39.195 21.0809 44.1389L21.0809 75.4736C21.0809 80.4176 25.0888 84.4255 30.0328 84.4255Z" fill="white"/>
<path d="M30.0333 34.2908L62.1788 34.2908C67.6089 34.2908 72.0268 38.7087 72.0268 44.1388V75.473C72.0268 80.9035 67.6089 85.3214 62.1788 85.3214H30.0333C24.6027 85.3214 20.1853 80.9035 20.1853 75.473L20.1853 44.1388C20.1853 38.7087 24.6027 34.2908 30.0333 34.2908ZM62.1788 83.5283C66.6208 83.5283 70.2346 79.9149 70.2346 75.472V44.1378C70.2346 39.6958 66.6212 36.082 62.1788 36.082L30.0333 36.082C25.5908 36.082 21.977 39.6954 21.977 44.1378L21.977 75.473C21.977 79.9154 25.5904 83.5292 30.0333 83.5292L62.1788 83.5283Z" fill="#371A45"/>
<path d="M14.9922 52.384C14.9922 52.384 12.7838 45.4946 20.0436 44.017C21.3517 43.7481 22.6019 43.858 23.7196 44.2661C28.5373 46.0424 30.8677 53.4704 24.5386 60.9032C24.2047 61.2973 23.8463 61.6895 23.4633 62.0836C23.4461 62.0984 23.43 62.1145 23.4151 62.1317C23.4151 62.1317 23.7523 62.6872 24.8262 63.4716C25.5007 63.962 26.4681 64.5445 27.8233 65.1337L30.4249 73.097L30.4298 73.1105L30.8908 74.5221L33.7044 83.1193C33.7044 83.1193 31.1264 82.2435 27.8311 80.7514C26.7422 80.2586 25.573 79.6963 24.3926 79.0758C24.0679 78.9057 23.7408 78.7289 23.4137 78.5497C23.4137 78.5497 22.6992 78.1643 21.5791 77.4696C15.8527 73.9044 -0.42411 62.1973 14.9922 52.384Z" fill="white"/>
<g opacity="0.2">
<path d="M24.3941 79.0768C25.8635 77.2981 28.1038 75.7415 30.8923 74.5231L33.7058 83.1204C33.7058 83.1204 31.1279 82.2445 27.8325 80.7524C26.7437 80.2596 25.5764 79.6974 24.3941 79.0768Z" fill="#371A45"/>
</g>
<path d="M52.7871 84.4265L61.3352 75.0671C63.8934 76.3443 65.9029 77.9279 67.1531 79.7085C62.7919 82.367 57.8753 83.9817 52.7871 84.4265Z" fill="#D8D8D8"/>
<path d="M28.2315 75.8893C32.4581 73.3446 38.6412 71.7408 45.5315 71.7408C52.9374 71.7408 59.5276 73.5932 63.748 76.4737C63.6246 76.7358 63.5018 76.996 63.3736 77.2581C63.3736 77.2581 65.7305 90.8061 53.9385 95.4118C51.1719 95.9755 48.355 96.2563 45.5315 96.2497C42.465 96.2497 39.5392 95.9312 36.8625 95.3536C26.7216 90.7006 28.8785 77.2581 28.8785 77.2581C28.6569 76.8009 28.4396 76.3441 28.2315 75.8893Z" fill="#D8D8D8"/>
<g opacity="0.2">
<path d="M28.6015 71.6141L27.8249 65.1362C24.3079 63.6089 23.4147 62.1342 23.4147 62.1342C23.4311 62.1174 23.4479 62.1005 23.4629 62.086C22.5196 62.8641 21.2539 63.7539 19.9252 64.254C19.9252 64.254 22.4304 65.5548 23.1921 66.5613C25.641 69.7805 25.6921 70.942 26.6291 72.2674C26.9322 72.6914 28.9455 72.3262 28.6015 71.6141Z" fill="#371A45"/>
</g>
<g opacity="0.2">
<path d="M20.0432 44.0155C12.8691 45.4782 14.9417 52.2225 14.9899 52.383C14.9899 52.383 16.2357 45.7065 22.7214 47.5382C26.8685 48.7114 26.5178 54.5567 25.7262 58.6167C25.7959 58.7773 25.8537 58.9428 25.8992 59.1119H25.9016C31.6285 50.5975 26.54 42.6906 20.0432 44.0155Z" fill="#371A45"/>
</g>
<path d="M21.4427 42.9744C24.2173 42.9744 26.748 44.48 28.1548 47.0729C30.0386 50.5417 30.0497 56.2748 24.6302 62.1525C25.1023 62.5918 25.997 63.2822 27.5454 64.0193C27.6531 64.069 27.7499 64.1396 27.8302 64.2269C27.9104 64.3143 27.9725 64.4168 28.0129 64.5283C28.0533 64.6399 28.0711 64.7583 28.0653 64.8768C28.0595 64.9953 28.0302 65.1115 27.9792 65.2186C27.9282 65.3257 27.8564 65.4216 27.768 65.5007C27.6796 65.5799 27.5764 65.6407 27.4643 65.6796C27.3523 65.7185 27.2336 65.7348 27.1152 65.7276C26.9968 65.7203 26.881 65.6895 26.7745 65.6371C23.6541 64.1513 22.7406 62.7494 22.6467 62.5943L22.2858 61.9978L22.7748 61.5016C28.0845 56.1057 28.2218 50.9507 26.5809 47.9261C25.2753 45.5172 22.8389 44.3566 20.2243 44.8909C18.3126 45.2807 16.9743 46.1093 16.2453 47.3538C15.0168 49.4524 15.8378 52.0814 15.8459 52.1074L16.057 52.7655L15.474 53.137C11.3505 55.7622 9.31885 58.703 9.43447 61.8779C9.73365 70.0709 23.6984 77.6825 23.8396 77.7586C28.7874 80.4888 33.9434 82.2497 33.9949 82.2671C34.2179 82.345 34.4011 82.5078 34.5046 82.7201C34.6082 82.9324 34.6238 83.1769 34.548 83.4006C34.4721 83.6243 34.3111 83.8091 34.0998 83.9146C33.8885 84.0202 33.6441 84.0381 33.4197 83.9644C33.2034 83.8911 28.0662 82.138 22.9815 79.3321C22.3778 79.0074 7.9824 71.1617 7.64372 61.9453C7.50786 58.2395 9.63586 54.8887 13.9714 51.9783C13.7425 50.8495 13.4896 48.5095 14.6988 46.448C15.6956 44.7454 17.4344 43.6306 19.8664 43.1349C20.3851 43.0287 20.9132 42.975 21.4427 42.9744Z" fill="#371A45"/>
<path d="M14.8573 51.6695C16.1581 51.1849 17.5384 50.8587 18.9346 50.8828C18.4374 51.2297 17.7417 51.6883 17.2368 52.028C16.6886 52.3917 16.1235 52.7646 15.5665 53.098L14.8573 51.6695Z" fill="#371A45"/>
<path d="M10.146 56.0868C10.2344 56.087 10.3218 56.1046 10.4033 56.1387C10.4848 56.1727 10.5588 56.2224 10.621 56.2851C10.6833 56.3477 10.7326 56.4221 10.766 56.5038C10.7995 56.5855 10.8166 56.673 10.8162 56.7613C10.8123 58.3401 12.2442 60.034 14.4637 61.0756C17.1323 62.3282 21.184 62.6631 24.5531 59.849C24.6205 59.7903 24.699 59.7457 24.7839 59.7177C24.8688 59.6897 24.9585 59.6789 25.0476 59.686C25.1368 59.6931 25.2236 59.7179 25.303 59.7589C25.3824 59.8 25.4529 59.8565 25.5102 59.9251C25.5675 59.9938 25.6106 60.0732 25.6368 60.1586C25.6631 60.2441 25.672 60.334 25.6631 60.4229C25.6542 60.5119 25.6276 60.5982 25.5849 60.6768C25.5422 60.7554 25.4843 60.8246 25.4145 60.8805C21.5603 64.0993 16.9352 63.7196 13.8928 62.2921C11.2021 61.0294 9.46722 58.8571 9.47252 56.758C9.47341 56.5798 9.54473 56.4093 9.67092 56.2835C9.79711 56.1578 9.96791 56.0871 10.146 56.0868Z" fill="#371A45"/>
<path d="M24.1156 62.7629C22.7797 63.4374 21.3873 64.0391 19.9242 64.3354C21.1392 63.5646 22.1789 62.5572 23.1348 61.505L24.1147 62.7629H24.1156Z" fill="#371A45"/>
<path d="M46.8063 35.6414C46.9451 33.4036 47.0347 31.1681 47.093 28.9886C47.1065 28.4374 47.12 27.8887 47.131 27.3467C47.317 17.7859 46.9561 9.6294 47.6706 7.56885C48.6477 4.76395 51.1832 4.52017 51.1832 4.52017H59.8552C59.8552 4.52017 65.849 4.21954 67.4427 5.6851C69.0364 7.15066 68.8789 9.23145 67.7163 10.672C66.7215 11.9082 64.9384 12.428 64.9384 12.428C64.9384 12.428 66.1429 21.3481 67.3757 33.2229C67.4239 33.7047 67.4764 34.1903 67.5256 34.6812C67.9018 38.3504 68.2738 42.2658 68.612 46.267L46.8063 35.6414Z" fill="white"/>
<g opacity="0.2">
<path d="M46.8063 35.6412C46.9451 33.4033 47.0347 31.1679 47.093 28.9884C47.1065 28.4372 47.12 27.8885 47.131 27.3465C56.9694 26.7683 63.5779 30.2371 67.3748 33.2241C67.4229 33.7059 67.4755 34.1915 67.5246 34.6825C67.9009 38.3517 68.2728 42.2671 68.611 46.2682L46.8063 35.6412Z" fill="#371A45"/>
</g>
<g opacity="0.2">
<path d="M67.4426 5.685C65.8528 4.22281 59.8571 4.52103 59.8571 4.52103L51.1851 4.52103C51.1851 4.52103 48.6481 4.76625 47.6715 7.57018C47.5492 7.9214 47.4576 8.45039 47.3902 9.13595C48.5012 8.27502 49.6271 8.16663 49.6271 8.16663H59.4322C59.4322 8.16663 66.2069 7.82939 68.0078 9.48477C68.1022 9.57059 68.1921 9.66129 68.2771 9.75648C68.8716 8.43449 68.7198 6.85957 67.4426 5.685Z" fill="#371A45"/>
</g>
<path d="M61.2494 3.59075C63.2936 3.59075 66.7041 3.78828 68.0483 5.02451C69.8352 6.66785 69.9889 9.27858 68.4139 11.2327C67.6816 12.1413 66.6217 12.7117 65.9188 13.0152C66.3524 16.3217 68.1947 30.7181 69.5052 46.1903C69.5252 46.4271 69.4502 46.6622 69.2969 46.8438C69.1436 47.0254 68.9244 47.1387 68.6876 47.1587C68.4508 47.1787 68.2157 47.1038 68.0341 46.9504C67.8525 46.7971 67.7392 46.5779 67.7192 46.3411C66.2368 28.8348 64.0707 12.7079 64.0491 12.547C64.0203 12.3343 64.0688 12.1185 64.1858 11.9387C64.3028 11.7588 64.4804 11.6269 64.6864 11.567C64.6994 11.5632 66.2166 11.104 67.0187 10.1087C67.8474 9.08058 68.1119 7.51818 66.8356 6.34409C65.9294 5.5111 62.2356 5.30008 59.9014 5.41426C59.887 5.41426 59.8721 5.41426 59.8571 5.41426H51.2401C50.9814 5.4528 49.2388 5.7886 48.5176 7.86216C48.0922 9.08491 48.0917 13.3674 48.0907 18.3263C48.0907 23.3011 48.0907 29.4929 47.7 35.6967C47.6851 35.934 47.5766 36.1555 47.3983 36.3128C47.2201 36.47 46.9867 36.5499 46.7495 36.535C46.5122 36.5202 46.2907 36.4116 46.1334 36.2334C45.9762 36.0551 45.8963 35.8217 45.9112 35.5845C46.2966 29.437 46.2966 23.2761 46.2966 18.3258C46.2966 12.5787 46.2966 8.78188 46.8227 7.27392C47.9746 3.96316 50.9703 3.63844 51.097 3.62592C51.1254 3.62351 51.1543 3.62206 51.1828 3.62206H59.8354C60.1014 3.61002 60.6087 3.59075 61.2494 3.59075Z" fill="#371A45"/>
<path d="M55.5356 20.7646C59.0752 20.7646 63.1645 21.2097 66.6767 22.7615C66.8865 22.8621 67.049 23.0403 67.1297 23.2585C67.2104 23.4768 67.2031 23.7179 67.1091 23.9307C67.0152 24.1436 66.8421 24.3116 66.6265 24.3991C66.4109 24.4866 66.1697 24.4868 65.954 24.3996C58.4003 21.0633 47.4803 23.3021 47.3705 23.3257C47.2553 23.3499 47.1365 23.3512 47.0208 23.3294C46.9051 23.3077 46.7949 23.2634 46.6963 23.1991C46.5978 23.1348 46.5129 23.0517 46.4464 22.9545C46.38 22.8574 46.3333 22.7481 46.3091 22.6329C46.2849 22.5177 46.2837 22.3989 46.3054 22.2832C46.3271 22.1675 46.3714 22.0573 46.4357 21.9587C46.5001 21.8602 46.5832 21.7753 46.6803 21.7088C46.7775 21.6424 46.8868 21.5957 47.0019 21.5715C47.2664 21.519 50.9371 20.7646 55.5356 20.7646Z" fill="#371A45"/>
<path d="M65.147 13.2969C62.7916 13.6876 60.4776 13.4944 58.1689 13.1119C58.0568 13.0921 57.9564 13.0304 57.888 12.9393C57.8197 12.8483 57.7885 12.7347 57.8007 12.6215C57.8129 12.5083 57.8677 12.4039 57.954 12.3296C58.0402 12.2553 58.1515 12.2165 58.2653 12.2211C60.4208 12.2939 62.6865 12.184 64.7264 11.5548C65.9501 11.2176 66.3909 13.0353 65.1465 13.2969H65.147Z" fill="#371A45"/>
<path d="M45.4457 35.6413C45.3065 33.4034 45.2169 31.168 45.1567 28.9884C45.1436 28.4373 45.1302 27.8886 45.1186 27.3466C44.9326 17.7857 45.2935 9.62927 44.579 7.56871C43.6024 4.76382 41.0664 4.52004 41.0664 4.52004H32.3944C32.3944 4.52004 26.4021 4.21941 24.8094 5.68449C23.2166 7.14957 23.3732 9.23084 24.5362 10.6713C25.5306 11.9076 27.3136 12.4274 27.3136 12.4274C27.3136 12.4274 26.1092 21.3475 24.8763 33.2223C24.8281 33.7041 24.7756 34.1897 24.7265 34.6806C24.3502 38.3498 23.9783 42.2652 23.6401 46.2664L45.4457 35.6413Z" fill="white"/>
<g opacity="0.2">
<path d="M45.4457 35.6412C45.3065 33.4033 45.2169 31.1679 45.1567 28.9884C45.1436 28.4372 45.1302 27.8885 45.1186 27.3465C35.2803 26.7683 28.6722 30.2371 24.8749 33.2241C24.8267 33.7059 24.7742 34.1915 24.725 34.6825C24.3488 38.3517 23.9768 42.2671 23.6386 46.2682L45.4457 35.6412Z" fill="#371A45"/>
</g>
<g opacity="0.2">
<path d="M24.8089 5.685C26.3988 4.22281 32.394 4.52103 32.394 4.52103L41.0659 4.52103C41.0659 4.52103 43.603 4.76625 44.5795 7.57018C44.7024 7.9214 44.7934 8.45039 44.8609 9.13595C43.7499 8.27502 42.6245 8.16663 42.6245 8.16663L32.8194 8.16663C32.8194 8.16663 26.0442 7.82939 24.2438 9.48477C24.1493 9.57059 24.0594 9.66129 23.9745 9.75648C23.38 8.43449 23.5317 6.85957 24.8089 5.685Z" fill="#371A45"/>
</g>
<path d="M31.0021 3.5906C31.6434 3.5906 32.1502 3.60987 32.4166 3.62288H41.0669C41.0953 3.62288 41.1242 3.62288 41.1527 3.62674C41.2794 3.63926 44.2755 3.96398 45.427 7.27474C45.9516 8.7827 45.9521 12.5796 45.9531 18.3267C45.9531 23.2769 45.9531 29.4379 46.3385 35.5853C46.3534 35.8225 46.2734 36.0559 46.1162 36.2342C45.959 36.4125 45.7374 36.521 45.5002 36.5359C45.263 36.5507 45.0296 36.4708 44.8513 36.3136C44.673 36.1564 44.5645 35.9348 44.5497 35.6976C44.1609 29.4937 44.1599 23.302 44.1589 18.3271C44.1589 13.3682 44.1589 9.08573 43.7326 7.86299C43.0147 5.80051 41.2876 5.45748 41.0076 5.41508H32.3925C32.3776 5.41508 32.3627 5.41508 32.3482 5.41508C30.0145 5.3009 26.3202 5.51144 25.414 6.34491C24.1378 7.519 24.4023 9.0814 25.2309 10.1095C26.0331 11.1049 27.5502 11.564 27.5656 11.5683C27.7708 11.6292 27.9474 11.7613 28.0638 11.9409C28.1802 12.1204 28.2287 12.3356 28.2006 12.5478C28.1789 12.7087 26.0129 28.8356 24.5304 46.3419C24.5104 46.5787 24.3972 46.7979 24.2156 46.9513C24.034 47.1046 23.7989 47.1795 23.5621 47.1595C23.3252 47.1395 23.1061 47.0262 22.9527 46.8446C22.7994 46.663 22.7245 46.428 22.7445 46.1911C24.0549 30.7189 25.8977 16.321 26.3308 13.0161C25.6279 12.713 24.568 12.1426 23.8357 11.2335C22.2608 9.2794 22.4145 6.66867 24.2014 5.02533C25.5475 3.78813 28.958 3.5906 31.0021 3.5906Z" fill="#371A45"/>
<path d="M36.716 20.7646C41.3155 20.7646 44.9852 21.5166 45.2506 21.5725C45.3658 21.5967 45.4751 21.6434 45.5722 21.7098C45.6694 21.7762 45.7525 21.8612 45.8168 21.9597C45.8812 22.0583 45.9255 22.1685 45.9472 22.2842C45.9689 22.3999 45.9676 22.5187 45.9434 22.6339C45.9192 22.749 45.8726 22.8583 45.8061 22.9555C45.7397 23.0526 45.6548 23.1357 45.5562 23.2001C45.4577 23.2644 45.3474 23.3087 45.2317 23.3304C45.1161 23.3521 44.9972 23.3509 44.8821 23.3267C44.7727 23.3035 33.8412 21.0686 26.299 24.4005C26.1906 24.4544 26.0723 24.4857 25.9514 24.4926C25.8305 24.4994 25.7095 24.4817 25.5956 24.4405C25.4817 24.3993 25.3774 24.3354 25.2889 24.2528C25.2004 24.1701 25.1296 24.0704 25.0807 23.9596C25.0318 23.8488 25.0059 23.7293 25.0045 23.6082C25.0031 23.4871 25.0263 23.367 25.0726 23.2551C25.1189 23.1432 25.1875 23.0419 25.274 22.9572C25.3606 22.8725 25.4635 22.8063 25.5764 22.7625C29.0871 21.2126 33.1768 20.7646 36.716 20.7646Z" fill="#371A45"/>
<path d="M27.5247 11.5558C29.565 12.185 31.8303 12.2949 33.9858 12.2221C34.5398 12.2024 34.6275 13.0147 34.0822 13.1129C31.7735 13.4955 29.46 13.6911 27.1041 13.2979C25.8626 13.0378 26.2971 11.2215 27.5242 11.5558H27.5247Z" fill="#371A45"/>
<path d="M31.0021 3.5906C31.6434 3.5906 32.1502 3.60987 32.4166 3.62288H41.0669C41.0953 3.62288 41.1242 3.62288 41.1527 3.62674C41.2794 3.63926 44.2755 3.96398 45.427 7.27474C45.9516 8.7827 45.9521 12.5796 45.9531 18.3267C45.9531 23.2769 45.9531 29.4379 46.3385 35.5853C46.3534 35.8225 46.2734 36.0559 46.1162 36.2342C45.959 36.4125 45.7374 36.521 45.5002 36.5359C45.263 36.5507 45.0296 36.4708 44.8513 36.3136C44.673 36.1564 44.5645 35.9348 44.5497 35.6976C44.1609 29.4937 44.1599 23.302 44.1589 18.3271C44.1589 13.3682 44.1589 9.08573 43.7321 7.86299C43.0147 5.80051 41.2871 5.45748 41.0072 5.41508H32.3925C32.3776 5.41508 32.3627 5.41508 32.3482 5.41508C30.014 5.30042 26.3202 5.51144 25.414 6.34491C24.1378 7.519 24.4023 9.0814 25.2309 10.1095C26.0331 11.1049 27.5502 11.564 27.5656 11.5683C27.7708 11.6292 27.9474 11.7613 28.0638 11.9409C28.1802 12.1204 28.2287 12.3356 28.2006 12.5478C28.1789 12.7087 26.0129 28.8356 24.5304 46.3419C24.5104 46.5787 24.3972 46.7979 24.2156 46.9513C24.034 47.1046 23.7989 47.1795 23.5621 47.1595C23.3252 47.1395 23.1061 47.0262 22.9527 46.8446C22.7994 46.663 22.7245 46.428 22.7445 46.1911C24.0549 30.7189 25.8977 16.321 26.3308 13.0161C25.6279 12.713 24.568 12.1426 23.8357 11.2335C22.2608 9.2794 22.4145 6.66867 24.2009 5.02533C25.5475 3.78813 28.958 3.5906 31.0021 3.5906Z" fill="#371A45"/>
<path d="M28.8775 77.2584C23.2407 65.5956 20.7047 54.9224 22.4251 46.6252C23.0389 43.6652 24.0631 41.2293 25.374 39.2266C28.2045 34.9113 32.3867 32.6142 36.7439 31.444C39.9285 30.5888 43.2079 30.3359 46.1236 30.3359C48.3682 30.3359 50.8286 30.4862 53.2958 30.9458C53.9876 31.075 54.6799 31.2282 55.3674 31.4088C59.252 32.4307 63.006 34.3385 65.7998 37.761C67.6306 40.0056 69.0508 42.9016 69.8231 46.6257C71.5435 54.9228 69.008 65.5961 63.3707 77.2589" fill="white"/>
<path d="M21.8961 52.3839C21.8759 50.3605 22.0488 48.4367 22.4261 46.6248C22.5108 46.2098 22.6048 45.8058 22.7079 45.4126C23.3308 42.9912 24.2448 40.948 25.376 39.2257C28.2054 34.9114 32.3877 32.6152 36.7459 31.4436C39.9314 30.5879 43.2108 30.3355 46.1251 30.3355C48.3697 30.3355 50.8315 30.4858 53.2977 30.9449C53.9901 31.075 54.6824 31.2272 55.3694 31.4084C59.2559 32.4302 63.0084 34.3385 65.8037 37.7616C67.4417 39.771 68.7517 42.3042 69.5649 45.4854C69.6613 45.8573 69.7465 46.236 69.827 46.6257C70.2032 48.4377 70.3757 50.3619 70.3569 52.3849C70.2938 59.6293 67.7828 68.1438 63.3741 77.259C63.3741 77.259 66.6502 96.107 46.1265 96.8976C25.6029 97.6882 28.879 77.259 28.879 77.259C24.4683 68.1428 21.9592 59.6284 21.8961 52.3839Z" fill="white"/>
<g opacity="0.2">
<path d="M28.2315 75.8893C32.4581 73.3446 38.6412 71.7408 45.5315 71.7408C52.9374 71.7408 59.5276 73.5932 63.748 76.4737C63.6246 76.7358 63.5018 76.996 63.3736 77.2581C63.3736 77.2581 65.7305 90.8061 53.9385 95.4118C51.1719 95.9755 48.355 96.2563 45.5315 96.2497C42.465 96.2497 39.5392 95.9312 36.8625 95.3536C26.7216 90.7006 28.8785 77.2581 28.8785 77.2581C28.6569 76.8009 28.4396 76.3441 28.2315 75.8893Z" fill="#371A45"/>
</g>
<g opacity="0.2">
<path d="M22.4251 46.6249C23.0389 43.6653 24.0602 41.229 25.375 39.2258C28.2045 34.9115 32.3868 32.6153 36.7449 31.4436C39.9304 30.588 43.2099 30.3356 46.1241 30.3356C48.3687 30.3356 50.8306 30.4859 53.2968 30.945C53.9891 31.0751 54.6814 31.2273 55.3684 31.4085C59.2549 32.4303 63.0075 34.3386 65.8027 37.7617C67.6335 40.0062 69.0533 42.9027 69.826 46.6263C70.3011 48.9157 70.4523 51.3863 70.3011 54.0095C70.2324 52.7772 70.0737 51.5514 69.826 50.3423C69.0552 46.6172 67.633 43.7231 65.8027 41.4776C63.0084 38.0546 59.2549 36.1458 55.3684 35.1244C54.6809 34.9433 53.9886 34.7905 53.2968 34.6609C50.8306 34.2018 48.3687 34.0515 46.1241 34.0515C43.2099 34.0515 39.9304 34.3044 36.7449 35.1596C32.3858 36.3289 28.2035 38.6284 25.375 42.9417C24.0602 44.944 23.0389 47.3813 22.4251 50.3403C22.1772 51.5495 22.0184 52.7752 21.9501 54.0076C21.7997 51.3848 21.9501 48.9143 22.4251 46.6249Z" fill="#371A45"/>
</g>
<path d="M66.1505 37.4769C67.8738 38.8798 68.9728 40.8898 69.7426 42.9388C72.1005 49.0756 71.6119 55.9255 69.9354 62.1616C69.8763 62.3894 69.73 62.5849 69.528 62.7058C69.326 62.8266 69.0846 62.8631 68.8559 62.8075C68.6272 62.7518 68.4296 62.6083 68.3058 62.4082C68.182 62.208 68.1419 61.9671 68.1942 61.7376C68.4052 60.7221 68.6076 59.707 68.7786 58.6885C69.4174 54.6555 69.655 50.5026 68.8075 46.4967C68.2405 43.4615 66.8674 40.7664 65.4548 38.0415C65.2265 37.6132 65.7719 37.1613 66.1491 37.4749L66.1505 37.4769Z" fill="#371A45"/>
<path d="M36.6297 31.0111C41.6402 29.1042 47.9996 29.0136 53.1927 30.247C53.9669 30.4623 54.7344 30.7085 55.4845 30.9749C55.5401 30.9946 55.5912 31.025 55.635 31.0644C55.6788 31.1038 55.7144 31.1515 55.7398 31.2047C55.7652 31.2579 55.7798 31.3156 55.7829 31.3745C55.7859 31.4333 55.7774 31.4922 55.7577 31.5478C55.7217 31.6476 55.6519 31.7317 55.5603 31.7854C55.4688 31.839 55.3613 31.859 55.2566 31.8416C54.4776 31.7747 53.7198 31.6489 52.9571 31.5636C49.1381 31.1676 45.2829 31.1373 41.4533 31.3791C39.9212 31.4856 38.3964 31.6571 36.86 31.8768C36.3416 31.951 36.1374 31.2057 36.6297 31.0096V31.0111Z" fill="#371A45"/>
<path d="M26.2152 72.4345C21.701 63.1941 18.4972 50.9392 23.3164 41.241C24.0434 39.8497 24.9607 38.5455 26.101 37.4769C26.4811 37.1286 27.0684 37.594 26.7953 38.0435C20.088 48.4908 23.3173 61.149 27.0429 72.0906C27.2125 72.6037 26.4734 72.9361 26.2152 72.4345Z" fill="#371A45"/>
<g opacity="0.2">
<path d="M31.865 52.384V57.7433C31.8673 58.5118 32.1736 59.2482 32.717 59.7916C33.2604 60.335 33.9968 60.6413 34.7653 60.6436L57.667 60.6436C58.4355 60.6413 59.1719 60.335 59.7153 59.7916C60.2587 59.2482 60.565 58.5118 60.5673 57.7433V52.384H70.3565L69.5654 45.4845C66.7764 45.8613 63.6622 46.2645 60.5673 46.6297V43.133C60.565 42.3645 60.2587 41.6281 59.7153 41.0847C59.1719 40.5413 58.4355 40.235 57.667 40.2327H34.7653C33.9968 40.235 33.2604 40.5413 32.717 41.0847C32.1736 41.6281 31.8673 42.3645 31.865 43.133V46.6769C28.6853 46.2765 25.494 45.8261 22.7074 45.4127C22.6043 45.8068 22.5102 46.2109 22.4251 46.6249C22.0489 48.4368 21.8759 50.361 21.8952 52.384H31.865Z" fill="#371A45"/>
</g>
<path d="M33.3711 54.7741C33.3711 54.7741 25.705 55.3585 22.4781 53.0354C19.0493 50.5663 22.5041 47.7098 22.5041 47.7098C22.5041 47.7098 28.6781 49.0588 33.863 48.8661L33.3711 54.7741Z" fill="white"/>
<g opacity="0.2">
<path d="M22.5032 47.7089C22.5032 47.7089 28.6795 49.0578 33.863 48.8651L33.677 51.1097C30.0733 51.2196 26.0346 50.6058 23.9393 50.2286C22.8255 50.0281 21.6962 50.5889 21.2332 51.6218C21.2284 51.632 21.2241 51.6421 21.2197 51.6517C20.2051 49.6109 22.5032 47.7089 22.5032 47.7089Z" fill="#371A45"/>
</g>
<path d="M58.2408 54.7741C58.2408 54.7741 65.9068 55.3585 69.1338 53.0354C72.563 50.5663 69.1082 47.7098 69.1082 47.7098C69.1082 47.7098 62.9338 49.0588 57.7489 48.8661L58.2408 54.7741Z" fill="white"/>
<path d="M22.2689 46.7414L22.6948 46.8344C22.7555 46.8474 28.824 48.1549 33.8301 47.9699L34.8418 47.9323L34.2001 55.6094L33.4389 55.6677C33.1123 55.6923 25.4067 56.2487 21.9543 53.7623C20.7407 52.8884 20.1053 51.8516 20.0663 50.6789C19.9978 48.6415 21.8537 47.0834 21.9327 47.0174L22.2689 46.7414ZM32.8068 49.7804C28.6308 49.7804 24.2148 48.9696 22.7825 48.6825C22.3759 49.1161 21.83 49.8773 21.858 50.6255C21.8797 51.2113 22.2646 51.7769 23.0017 52.3078C25.176 53.8736 30.0732 54.0205 32.5409 53.9232L32.8858 49.7799L32.8068 49.7804Z" fill="#371944"/>
<path d="M69.3457 46.7414L69.683 47.0189C69.762 47.0845 71.6173 48.6425 71.5494 50.6804C71.5103 51.8521 70.8749 52.8889 69.6613 53.7638C66.2089 56.2498 58.5034 55.6943 58.1767 55.6692L57.415 55.6109L56.7762 47.9338L57.7879 47.9714C62.7955 48.1555 68.8625 46.8489 68.9232 46.8359L69.3457 46.7414ZM60.2951 53.9459C62.9164 53.9459 66.7596 53.6424 68.6129 52.3079C69.3501 51.7779 69.735 51.2114 69.7567 50.6255C69.7846 49.8778 69.2392 49.1195 68.8317 48.6825C67.3993 48.9716 62.9829 49.7805 58.8078 49.7805H58.7269L59.0719 53.9238C59.4327 53.9372 59.8461 53.9459 60.2951 53.9459Z" fill="#371944"/>
<path d="M32.8758 57.0582V46.1421C32.8758 44.1163 34.4715 42.459 36.4202 42.459H55.7765C57.7272 42.459 59.3205 44.1163 59.3205 46.1421V57.0582C59.3205 59.0817 57.7272 60.739 55.7765 60.739H36.4202C34.8636 60.739 33.5296 59.6791 33.0589 58.2227C32.9378 57.8464 32.876 57.4535 32.8758 57.0582Z" fill="white"/>
<g opacity="0.2">
<path d="M32.8758 57.0582V46.1421C32.8758 44.1162 34.4715 42.4589 36.4202 42.4589H55.7765C57.7272 42.4589 59.3205 44.1162 59.3205 46.1421V49.8157C55.9808 47.8963 49.3651 45.0138 42.7247 47.3923C39.481 48.5548 35.7621 52.5401 35.7621 52.5401C35.7621 52.5401 35.6176 48.3588 35.0212 48.4248C33.3605 48.6083 33.3725 57.0683 33.0589 58.2222C32.9378 57.846 32.876 57.4533 32.8758 57.0582Z" fill="#371A45"/>
</g>
<path d="M36.2881 41.5641H55.9094C57.0516 41.5654 58.1466 42.0197 58.9542 42.8273C59.7619 43.635 60.2162 44.73 60.2174 45.8722V57.3269C60.2162 58.469 59.7619 59.5641 58.9542 60.3717C58.1466 61.1793 57.0516 61.6336 55.9094 61.6349H36.2881C35.146 61.6336 34.0509 61.1793 33.2433 60.3717C32.4357 59.5641 31.9814 58.469 31.9801 57.3269L31.9801 45.8722C31.9814 44.73 32.4357 43.635 33.2433 42.8273C34.0509 42.0197 35.146 41.5654 36.2881 41.5641ZM55.9094 59.8427C56.5765 59.8419 57.216 59.5766 57.6877 59.105C58.1594 58.6334 58.4248 57.9939 58.4257 57.3269V45.8722C58.4248 45.2051 58.1594 44.5656 57.6877 44.094C57.216 43.6224 56.5765 43.3571 55.9094 43.3563H36.2881C35.6211 43.3571 34.9816 43.6224 34.5099 44.094C34.0381 44.5656 33.7727 45.2051 33.7718 45.8722V57.3269C33.7727 57.9939 34.0381 58.6334 34.5099 59.105C34.9816 59.5766 35.6211 59.8419 36.2881 59.8427H55.9094Z" fill="#371944"/>
<path d="M39.2414 48.4253C37.5531 48.4253 36.1845 49.8465 36.1845 51.5997C36.1845 53.3529 37.5531 54.7741 39.2414 54.7741C40.9296 54.7741 42.2983 53.3529 42.2983 51.5997C42.2983 49.8465 40.9296 48.4253 39.2414 48.4253Z" fill="#22A7F0"/>
<path d="M36.1841 51.5983C36.1835 51.3867 36.2037 51.1757 36.2444 50.9681C36.5267 52.4216 37.762 53.5157 39.242 53.5157C40.722 53.5157 41.9573 52.4216 42.2377 50.9681C42.2781 51.1757 42.2983 51.3868 42.2979 51.5983C42.2979 53.3514 40.9301 54.7741 39.242 54.7741C37.5538 54.7741 36.1841 53.3519 36.1841 51.5983Z" fill="white"/>
<path d="M36.1851 51.5982C36.1851 49.8436 37.5543 48.4238 39.2415 48.4238C40.9287 48.4238 42.2979 49.8436 42.2979 51.5982C42.298 51.8853 42.2607 52.1711 42.1871 52.4485C41.8277 51.1097 40.6454 50.1264 39.2415 50.1264C37.8376 50.1264 36.6553 51.1097 36.2959 52.4485C36.2223 52.1711 36.185 51.8853 36.1851 51.5982Z" fill="#1C7AEA"/>
<path d="M39.2414 47.7532C41.2976 47.7532 42.9704 49.4784 42.9704 51.5997C42.9704 53.7209 41.2976 55.4462 39.2414 55.4462C37.1852 55.4462 35.5125 53.7204 35.5125 51.5997C35.5125 49.4789 37.1871 47.7532 39.2414 47.7532ZM39.2414 54.102C40.5562 54.102 41.6262 52.9795 41.6262 51.5997C41.6262 50.2198 40.5562 49.0973 39.2414 49.0973C37.9267 49.0973 36.8566 50.2198 36.8566 51.5997C36.8566 52.9795 37.9267 54.1034 39.2414 54.1034V54.102Z" fill="#371944"/>
<path d="M48.916 41.5641C49.1536 41.5641 49.3816 41.6585 49.5496 41.8266C49.7177 41.9946 49.8121 42.2226 49.8121 42.4602V48.0488C49.8121 49.1507 50.315 50.2014 51.1577 50.861L51.6491 51.2464C52.9229 52.2422 53.6831 53.8215 53.6831 55.4706L53.6831 60.7388C53.6831 60.9765 53.5887 61.2044 53.4207 61.3724C53.2526 61.5405 53.0247 61.6349 52.787 61.6349C52.5494 61.6349 52.3215 61.5405 52.1534 61.3724C51.9853 61.2044 51.8909 60.9765 51.8909 60.7388V55.4672C51.8909 54.3649 51.388 53.3137 50.5453 52.6551L50.0539 52.2697C48.7801 51.2734 48.0199 49.6946 48.0199 48.0459V42.4573C48.0206 42.2202 48.1154 41.993 48.2834 41.8256C48.4513 41.6581 48.6788 41.5641 48.916 41.5641Z" fill="#371944"/>
<path d="M45.912 61.6559C45.4442 58.9006 45.8046 57.2024 46.4497 56.0355C46.8732 55.2647 47.4243 54.7227 47.9394 54.2635C49.9445 52.4761 56.2505 51.9992 56.2505 51.9992C56.2505 51.9992 68.4384 46.7806 75.97 50.4373C80.9896 52.877 82.2331 59.9282 80.0309 65.4417C79.8608 65.8652 79.6614 66.3089 79.4306 66.7743C79.4303 66.7765 79.4303 66.7788 79.4306 66.781C76.209 73.2773 67.1482 83.1426 52.7884 84.4265L64.8897 71.1777L66.7811 66.0034C61.761 66.055 58.244 66.187 57.2338 66.6485C56.2235 67.1101 56.5236 70.6246 55.5447 71.9712C54.9959 72.7281 52.8722 72.69 52.1978 71.223C51.4048 69.4886 52.5297 67.4704 51.4722 66.689C50.686 66.1065 47.8589 67.0605 46.2059 65.551C45.2737 64.7002 45.5218 62.7534 45.912 61.6559Z" fill="white"/>
<g opacity="0.2">
<path d="M52.7871 84.4265L61.3352 75.0671C63.8934 76.3443 65.9029 77.9279 67.1531 79.7085C62.7919 82.367 57.8753 83.9817 52.7871 84.4265Z" fill="#371A45"/>
</g>
<g opacity="0.2">
<path d="M46.4497 56.0353C46.8732 55.2644 47.4243 54.7224 47.9394 54.2633C49.9445 52.4759 56.2505 51.9989 56.2505 51.9989C56.2505 51.9989 68.4384 46.7803 75.97 50.437C80.9896 52.8767 82.2331 59.928 80.0309 65.4414C79.8608 65.8649 79.6614 66.3086 79.4306 66.774C79.5159 66.4426 82.6585 54.0036 73.7938 51.5981C65.8344 49.4369 59.5106 54.5013 56.9529 54.7725C54.8345 54.998 50.1059 52.8632 46.4497 56.0353Z" fill="#371A45"/>
</g>
<path d="M52.7076 83.5327C61.4759 82.7932 69.7625 78.2713 75.2952 71.4493C77.0999 69.21 78.7249 66.7438 79.5873 63.9909C80.7489 60.065 80.3249 55.2159 77.216 52.3493C74.0156 49.5955 69.0032 49.8031 65.0444 50.4256C62.1528 50.9208 59.3227 51.725 56.6028 52.8244C56.5117 52.8616 56.4156 52.8851 56.3176 52.8942C54.9635 53.0096 53.6177 53.2082 52.288 53.4887C51.0807 53.7595 49.6956 54.115 48.7161 54.7895C46.5043 56.4314 46.3477 58.915 46.7953 61.5064C46.8208 61.6577 46.8072 61.8129 46.7558 61.9574C46.4937 62.734 46.34 63.6947 46.5674 64.4722C46.6435 64.677 46.696 64.7984 46.8613 64.9323C47.2221 65.2484 47.7285 65.4262 48.3191 65.5105C49.9191 65.7711 52.3073 64.9588 52.7876 67.2526C53.1051 68.7543 52.0168 71.3616 54.217 71.5601C54.468 71.5722 54.7142 71.5173 54.8241 71.4382C54.8946 71.3352 54.9533 71.2245 54.9989 71.1082C55.5886 69.6629 55.3362 67.7796 56.2337 66.3598C56.6423 65.7239 57.6333 65.5789 58.2707 65.4816C59.7439 65.2821 61.1425 65.2407 62.5585 65.1872C64.0159 65.1525 65.4674 65.1014 66.9176 65.1183C67.4957 65.1472 67.8744 65.7928 67.6239 66.3121L65.3113 71.3298C65.0743 71.8237 64.33 71.5481 64.4697 71.0215L65.9415 65.6964L66.7923 66.9009C65.3952 66.9158 64.0024 66.936 62.6153 66.9789C60.9344 67.0753 59.1793 67.0228 57.6184 67.4607C57.5996 67.4679 57.6222 67.4607 57.6309 67.4535C57.6396 67.4463 57.7022 67.3985 57.6819 67.4188C57.509 67.7078 57.4411 68.1328 57.3616 68.5341C57.1038 69.8397 57.0874 71.2701 56.2771 72.4924C55.8059 73.1582 54.8481 73.3914 54.1443 73.3509C51.997 73.2584 50.9164 71.5091 50.9988 69.5164C50.9694 68.8338 51.1842 68.0196 50.979 67.4477C50.9703 67.4303 50.9246 67.4024 50.9742 67.4318C50.8658 67.3798 50.4712 67.3721 50.2828 67.3687C48.6997 67.4029 46.617 67.3687 45.4222 66.0269C44.3411 64.7093 44.5907 62.8472 45.0705 61.3537L45.031 61.8047C44.6562 59.6396 44.6239 57.0028 46.0018 55.0598C46.4658 54.4069 47.0253 53.8275 47.6615 53.3408C48.3663 52.835 49.0789 52.5603 49.7866 52.3093C51.878 51.6252 54.0041 51.3092 56.1846 51.1049L55.8994 51.1748C58.7504 50.0195 61.7181 49.1761 64.7506 48.6594C69.287 47.9459 74.7233 47.8226 78.4123 51.0163C82.0844 54.3815 82.6519 59.9489 81.3029 64.5089C78.4831 72.9187 70.0515 80.2567 61.8589 83.2731C58.9746 84.371 55.9331 85.0291 52.8671 85.3192C52.7491 85.3311 52.63 85.3194 52.5166 85.285C52.4032 85.2505 52.2977 85.1939 52.2063 85.1184C52.115 85.0429 52.0395 84.95 51.9842 84.8451C51.929 84.7402 51.8951 84.6254 51.8846 84.5073C51.874 84.3892 51.887 84.2703 51.9228 84.1572C51.9585 84.0442 52.0164 83.9394 52.0929 83.8489C52.1695 83.7584 52.2632 83.684 52.3687 83.63C52.4743 83.5759 52.5894 83.5434 52.7076 83.5342V83.5327Z" fill="#371A45"/>
<path d="M75.0513 63.9316C75.0513 63.9316 72.9315 65.6179 66.7802 66.0033L75.0513 63.9316Z" fill="white"/>
<path d="M75.3308 64.2834C74.1008 65.1988 72.6396 65.6844 71.1875 66.0929C69.8053 66.4784 68.2622 66.7265 66.8366 66.898C65.597 67.0117 65.451 65.1906 66.6979 65.1101C68.7757 65.0769 70.9327 64.9121 72.9306 64.3325C73.581 64.1398 74.2415 63.9066 74.8187 63.5549C75.2894 63.2741 75.7547 63.9355 75.3313 64.2834H75.3308Z" fill="#371A45"/>
<path d="M73.9982 49.0294C74.1057 49.0292 74.2117 49.0549 74.3072 49.1042C74.4027 49.1536 74.4849 49.2253 74.5469 49.3131C76.6075 52.2235 77.1287 55.1956 76.0963 58.1465C74.3894 63.0254 69.1105 66.0283 66.9671 66.6493C66.88 66.6827 66.7868 66.6977 66.6936 66.6932C66.6003 66.6888 66.509 66.665 66.4254 66.6235C66.3418 66.5819 66.2678 66.5234 66.2079 66.4518C66.1481 66.3801 66.1038 66.2968 66.0779 66.2071C66.0519 66.1174 66.0448 66.0234 66.0571 65.9308C66.0694 65.8383 66.1007 65.7493 66.1492 65.6695C66.1976 65.5897 66.2621 65.5208 66.3386 65.4672C66.415 65.4136 66.5017 65.3765 66.5933 65.3582C68.7487 64.7319 73.3772 61.8484 74.8278 57.7023C75.708 55.186 75.2445 52.6248 73.4504 50.0902C73.3792 49.9897 73.337 49.8716 73.3284 49.7487C73.3198 49.6259 73.3452 49.503 73.4017 49.3936C73.4583 49.2841 73.5438 49.1924 73.649 49.1283C73.7542 49.0643 73.875 49.0303 73.9982 49.0303V49.0294Z" fill="#371A45"/>
<path d="M10.7652 124.572C10.7652 124.572 2.60921 121.48 1.77092 119.97C0.216711 117.171 0.505295 100.718 4.8061 96.4283C6.48943 94.7484 18.8571 93.1788 18.8571 93.1788L10.7652 124.572Z" fill="white"/>
<g opacity="0.2">
<path d="M18.8551 93.179C18.8551 93.179 6.48749 94.7491 4.80513 96.4291C3.12277 98.109 2.059 101.632 1.47654 105.479C1.61288 105.356 5.98113 101.586 14.695 109.249L14.7109 109.263L18.8551 93.179Z" fill="#371A45"/>
</g>
<path d="M46.1227 107.4V107.26L46.2123 107.329L46.1227 107.4Z" fill="#D8D8D8"/>
<path d="M46.2123 107.329L46.3014 107.26V107.4L46.2123 107.329Z" fill="#D8D8D8"/>
<path d="M73.1498 93.1788C73.1498 93.1788 85.5174 94.7489 87.1998 96.4289C88.8821 98.1088 89.9459 101.632 90.5284 105.479C91.4399 111.483 91.1778 118.261 90.2302 119.968C89.3923 121.478 81.2364 124.572 81.2364 124.572L77.2916 109.26L73.1498 93.1788Z" fill="white"/>
<g opacity="0.2">
<path d="M73.1497 93.179C73.1497 93.179 85.5174 94.7491 87.1998 96.4291C88.8821 98.109 89.9459 101.632 90.5284 105.479C90.3915 105.356 86.0238 101.586 77.3094 109.249C77.3051 109.253 77.2983 109.258 77.294 109.263L73.1497 93.179Z" fill="#371A45"/>
</g>
<path d="M20.0524 92.1237L11.3833 125.765L10.4477 125.411C7.90347 124.447 1.88754 122.027 0.987585 120.405C-0.734762 117.303 -0.516045 100.471 4.17115 95.7938C5.97974 93.9896 16.6265 92.5587 18.7424 92.2899L20.0524 92.1237ZM10.149 123.373L17.6561 94.242C12.0901 95.0129 6.28615 96.2135 5.43726 97.0624C1.46695 101.024 1.16198 117.028 2.55431 119.535C2.97249 120.224 6.64844 121.986 10.149 123.373Z" fill="#371A45"/>
<path d="M71.9516 92.1237L73.2616 92.2899C75.3775 92.5587 86.0243 93.9896 87.8324 95.7938C92.5201 100.471 92.7388 117.303 91.0164 120.405C90.116 122.027 84.1005 124.446 81.5563 125.411L80.6207 125.765L71.9516 92.1237ZM81.8545 123.373C85.3561 121.988 89.033 120.223 89.4507 119.534C90.8416 117.029 90.5371 101.024 86.5668 97.0624C85.7164 96.2135 79.9139 95.0129 74.348 94.242L81.8545 123.373Z" fill="#371A45"/>
<path d="M46.0051 76.4453C25.1199 76.4453 8.18907 93.3761 8.18907 114.261C8.18907 135.147 25.1199 152.077 46.0051 152.077C66.8903 152.077 83.8211 135.147 83.8211 114.261C83.8211 93.3761 66.8903 76.4453 46.0051 76.4453Z" fill="white"/>
<g opacity="0.2">
<path d="M8.18813 114.262C8.18813 93.3769 25.1187 76.4464 46.0041 76.4464C66.8896 76.4464 83.8235 93.3769 83.8235 114.262C83.825 116.43 83.64 118.594 83.2704 120.73C80.2025 102.927 64.6855 89.3835 46.0051 89.3835C27.3247 89.3835 11.8101 102.927 8.74217 120.73C8.37233 118.594 8.18697 116.43 8.18813 114.262Z" fill="#371A45"/>
</g>
<path d="M46.0036 75.5492C67.3497 75.5492 84.7157 92.9153 84.7157 114.261C84.7157 135.607 67.3511 152.973 46.0036 152.973C24.6562 152.973 7.29151 135.607 7.29151 114.261C7.29151 92.9153 24.661 75.5492 46.0036 75.5492ZM46.0036 151.181C66.3615 151.181 82.924 134.619 82.924 114.261C82.924 93.9034 66.3615 77.341 46.0036 77.341C25.6457 77.341 9.08372 93.9034 9.08372 114.261C9.08372 134.619 25.6472 151.181 46.0036 151.181Z" fill="#371A45"/>
<path d="M46.0036 75.5492C67.3497 75.5492 84.7157 92.9153 84.7157 114.261C84.7157 135.607 67.3511 152.973 46.0036 152.973C24.6562 152.973 7.29151 135.607 7.29151 114.261C7.29151 92.9153 24.661 75.5492 46.0036 75.5492ZM46.0036 151.181C66.3615 151.181 82.924 134.619 82.924 114.261C82.924 93.9034 66.3615 77.341 46.0036 77.341C25.6457 77.341 9.08372 93.9034 9.08372 114.261C9.08372 134.619 25.6472 151.181 46.0036 151.181Z" fill="#371A45"/>
<path d="M46.0036 75.5492C67.3497 75.5492 84.7157 92.9153 84.7157 114.261C84.7157 135.607 67.3511 152.973 46.0036 152.973C24.6562 152.973 7.29151 135.607 7.29151 114.261C7.29151 92.9153 24.661 75.5492 46.0036 75.5492ZM46.0036 151.181C66.3615 151.181 82.924 134.619 82.924 114.261C82.924 93.9034 66.3615 77.341 46.0036 77.341C25.6457 77.341 9.08372 93.9034 9.08372 114.261C9.08372 134.619 25.6472 151.181 46.0036 151.181Z" fill="#371A45"/>
<path d="M46.0036 75.5496C63.6429 75.5496 79.0399 87.4494 83.4679 104.493C83.4752 104.513 83.4814 104.534 83.4867 104.556C84.6672 109.137 85.0007 113.896 84.471 118.597C82.2934 138.193 65.7564 152.973 46.0036 152.973C26.2508 152.973 9.70856 138.189 7.53238 118.584C7.00879 113.887 7.34212 109.134 8.51617 104.557C8.52194 104.535 8.52821 104.512 8.53544 104.491C12.9707 87.448 28.3706 75.5496 46.0036 75.5496ZM81.7461 104.991C77.5392 88.7103 62.8431 77.3418 46.0036 77.3418C29.1641 77.3418 14.4671 88.7117 10.2559 104.992C10.2501 105.017 10.2429 105.041 10.2347 105.065C9.12718 109.413 8.81478 113.926 9.31254 118.385C11.3914 137.082 27.1662 151.181 46.0036 151.181C64.841 151.181 80.611 137.087 82.6899 118.397C82.8457 117.024 82.9236 115.643 82.923 114.262C82.9256 111.16 82.5371 108.07 81.7668 105.065C81.762 105.041 81.7547 105.016 81.7485 104.991H81.7461Z" fill="#371A45"/>
<path d="M9.50631 123.283C9.68148 123.283 9.8528 123.334 9.99911 123.43C10.1454 123.527 10.2603 123.664 10.3297 123.825C16.3037 137.697 30.3089 146.661 46.0051 146.661C61.6918 146.661 75.6926 137.705 81.6744 123.844C81.7656 123.638 81.931 123.475 82.1376 123.385C82.3442 123.296 82.5769 123.287 82.7894 123.362C83.0019 123.436 83.1787 123.587 83.2845 123.786C83.3903 123.985 83.4175 124.216 83.3606 124.434C78.8015 141.238 63.4401 152.974 46.0037 152.974C28.5572 152.974 13.1924 141.229 8.64056 124.413C8.60483 124.28 8.60011 124.141 8.62674 124.006C8.65338 123.871 8.71068 123.744 8.79421 123.635C8.87774 123.525 8.98526 123.437 9.10848 123.376C9.2317 123.314 9.36732 123.282 9.50487 123.282L9.50631 123.283ZM46.0037 148.453C37.8583 148.453 30.0088 146.141 23.3039 141.764C20.4873 139.931 17.9125 137.75 15.6403 135.274C22.3967 145.014 33.6548 151.181 46.0037 151.181C58.3044 151.181 69.5225 145.057 76.2886 135.383C68.7719 143.564 57.8457 148.453 46.0037 148.453Z" fill="#371A45"/>
<path d="M8.19146 114.26C8.18929 111.062 8.59155 107.877 9.38868 104.779C9.38957 104.779 9.39043 104.779 9.39107 104.779C9.3917 104.778 9.39205 104.777 9.39205 104.776C15.9524 92.1021 29.8848 81.1966 46.007 81.1966C62.1291 81.1966 76.0597 92.1021 82.6186 104.776C82.6186 104.777 82.6189 104.778 82.6195 104.779C82.6202 104.779 82.621 104.779 82.6219 104.779C83.4217 107.876 83.8248 111.062 83.8216 114.26C83.8217 115.675 83.7413 117.089 83.5807 118.494C78.4791 132.61 63.587 142.824 46.0022 142.824C28.4174 142.824 13.5194 132.603 8.42368 118.485C8.2676 117.082 8.19007 115.672 8.19146 114.26Z" fill="#371A45"/>
<g opacity="0.35">
<path d="M8.19001 114.259C8.18713 111.061 8.5889 107.876 9.38577 104.779C9.38667 104.779 9.38753 104.778 9.38816 104.778C9.38879 104.777 9.38914 104.776 9.38914 104.775C15.949 92.1011 29.8815 81.1961 46.0041 81.1961C62.1267 81.1961 76.0577 92.1011 82.6185 104.775C82.6185 104.776 82.6189 104.777 82.6195 104.778C82.6202 104.778 82.621 104.779 82.6219 104.779C83.0934 106.605 83.4273 108.464 83.6206 110.34C75.1414 100.815 62.8137 93.8842 49.0889 93.8842C31.6033 93.8842 16.3763 105.131 8.49448 118.666C8.4704 118.604 8.44631 118.545 8.42511 118.483C8.26833 117.081 8.18984 115.671 8.19001 114.259Z" fill="#111A28"/>
</g>
<path d="M46.0071 80.7149C53.6793 80.7149 61.3439 83.1772 68.1687 87.8355C74.3629 92.0621 79.6393 97.988 83.0296 104.525C83.0555 104.566 83.0748 104.612 83.0869 104.659C83.8972 107.795 84.3065 111.021 84.3048 114.26C84.3057 115.693 84.2253 117.125 84.064 118.548C84.06 118.585 84.0514 118.622 84.0384 118.657C81.4681 125.77 76.5227 131.889 69.7422 136.354C62.835 140.901 54.6279 143.304 46.0085 143.304C37.3891 143.304 29.1786 140.899 22.2705 136.35C15.4871 131.882 10.5436 125.761 7.97472 118.647C7.96165 118.611 7.95307 118.574 7.9492 118.537C7.43097 113.89 7.7607 109.187 8.92239 104.658C8.93479 104.611 8.95411 104.566 8.97971 104.524C12.37 97.9875 17.6473 92.0612 23.8425 87.8346C30.6693 83.1772 38.3343 80.7149 46.0071 80.7149ZM82.172 104.959C76.1542 93.3644 62.6471 81.6784 46.0071 81.6784C29.367 81.6784 15.8566 93.3644 9.83873 104.959C8.72374 109.338 8.40535 113.881 8.89878 118.372C14.1044 132.711 29.0086 142.34 46.0071 142.34C63.0055 142.34 77.904 132.715 83.112 118.382C83.6109 113.887 83.2924 109.339 82.172 104.958V104.959Z" fill="#371A45"/>
<g opacity="0.5">
<path d="M14.6208 115.114C14.0466 118.695 15.6849 121.936 18.28 122.352C20.8752 122.768 23.4445 120.202 24.0187 116.621C24.593 113.04 22.9547 109.8 20.3596 109.383C17.7644 108.967 15.1951 111.533 14.6208 115.114Z" fill="white"/>
</g>
<g opacity="0.5">
<path d="M22.502 102.701C22.0192 104.3 22.7396 105.931 24.111 106.345C25.4824 106.76 26.9856 105.8 27.4684 104.202C27.9512 102.603 27.2308 100.972 25.8594 100.558C24.488 100.143 22.9848 101.103 22.502 102.701Z" fill="white"/>
</g>
<g opacity="0.5">
<path d="M74.9795 102.924C74.9795 102.924 81.299 121.714 71.2607 129.456C61.2224 137.198 46.5596 137.464 46.8829 136.517C46.8829 136.517 63.0349 132.258 69.126 119.297C73.8242 109.303 74.9795 102.924 74.9795 102.924Z" fill="white"/>
</g>
<path d="M76.8739 4.55569C66.1515 4.55569 57.4593 13.2479 57.4593 23.9703C57.4593 34.6927 66.1515 43.3849 76.8739 43.3849C87.5963 43.3849 96.2885 34.6927 96.2885 23.9703C96.2885 13.2479 87.5963 4.55569 76.8739 4.55569Z" fill="#FFD62C"/>
<path d="M57.4603 23.9695C57.4603 13.249 66.1506 4.5568 76.8758 4.5568C84.3655 4.5568 90.8647 8.79642 94.1017 15.0113C90.619 9.81201 84.6912 6.39139 77.9622 6.39139C67.2394 6.39139 58.5467 15.0836 58.5467 25.8069C58.5414 28.9206 59.2897 31.9894 60.7277 34.7511C58.5911 31.5619 57.4536 27.8082 57.4603 23.9695Z" fill="#FFB42E"/>
<g opacity="0.7">
<path d="M58.3785 29.8826C61.0422 36.0975 66.8578 40.6426 73.8136 41.505V41.4944C73.7828 40.7664 75.2166 40.1141 77.0136 40.0361C78.8106 39.958 80.294 40.4875 80.3253 41.2159V41.2222C89.0816 39.3433 95.6458 31.5582 95.6458 22.2402C95.6482 20.2429 95.3412 18.2572 94.7357 16.3539C95.7629 18.7612 96.2909 21.352 96.2875 23.9693C96.2875 34.6922 87.5948 43.3849 76.8719 43.3849C68.2135 43.3844 60.877 37.7124 58.3785 29.8826Z" fill="white"/>
</g>
<path d="M76.8739 3.62347C88.093 3.62347 97.2207 12.7507 97.2207 23.9703C97.2207 35.1899 88.093 44.3171 76.8739 44.3171C65.6548 44.3171 56.5271 35.1894 56.5271 23.9703C56.5271 12.7512 65.6548 3.62347 76.8739 3.62347ZM76.8739 42.4522C87.0649 42.4522 95.3558 34.1613 95.3558 23.9703C95.3558 13.7793 87.0649 5.48841 76.8739 5.48841C66.6829 5.48841 58.392 13.7793 58.392 23.9703C58.392 34.1613 66.6829 42.4522 76.8739 42.4522Z" fill="#371A45"/>
<path d="M76.8739 9.37687C68.8141 9.37687 62.2804 15.9106 62.2804 23.9703C62.2804 32.0301 68.8141 38.5638 76.8739 38.5638C84.9336 38.5638 91.4673 32.0301 91.4673 23.9703C91.4673 15.9106 84.9336 9.37687 76.8739 9.37687Z" fill="#FF9C43"/>
<path d="M76.8739 9.37687C68.8141 9.37687 62.2804 15.9106 62.2804 23.9703C62.2804 32.0301 68.8141 38.5638 76.8739 38.5638C84.9336 38.5638 91.4673 32.0301 91.4673 23.9703C91.4673 15.9106 84.9336 9.37687 76.8739 9.37687Z" fill="#FF9C43"/>
<path d="M62.28 23.9694C62.28 15.9107 68.8143 9.3764 76.8734 9.3764C83.4694 9.3764 89.0402 13.7504 90.8478 19.7563C88.6586 14.4639 83.4449 10.7398 77.3581 10.7398C69.297 10.7398 62.7646 17.2741 62.7646 25.3333C62.7626 26.7597 62.9705 28.1786 63.3818 29.5445C62.6508 27.7768 62.2764 25.8822 62.28 23.9694Z" fill="#FF7A45"/>
<path d="M91.4674 23.9702C91.4674 32.0289 84.9331 38.5632 76.874 38.5632C70.278 38.5632 64.7072 34.1891 62.8996 28.1833C65.0888 33.4756 70.3025 37.1998 76.3893 37.1998C84.4504 37.1998 90.9828 30.6654 90.9828 22.6063C90.9848 21.1799 90.7769 19.761 90.3656 18.3951C91.0965 20.1628 91.471 22.0574 91.4674 23.9702Z" fill="#FF7A45"/>
<path d="M72.5977 21.0445C72.5977 19.2908 73.9495 17.939 75.7663 17.5164V15.4043H78.1333V17.5588C79.9712 18.0449 81.4093 19.5023 81.5539 19.6502L79.8643 21.3403C79.7376 21.1924 78.4276 19.8193 76.9067 19.8193C75.7658 19.8193 75.0277 20.3893 75.0277 21.0238C75.0277 22.9248 81.2807 23.2843 81.2807 26.9178C81.2807 28.671 79.95 30.0228 78.1333 30.4242V32.5368H75.7673V30.3822C73.9293 29.8961 72.4912 28.46 72.3467 28.3106L74.0155 26.6206C74.1634 26.7897 75.4941 28.0991 76.9939 28.0991C78.1347 28.0991 78.8728 27.5692 78.8728 26.9371C78.8728 25.037 72.5977 24.678 72.5977 21.0445Z" fill="#FFD62C"/>
</svg>
